<?xml version="1.0" encoding="UTF-8" standalone="no"?>
<!-- Created with Inkscape (http://www.inkscape.org/) -->

<svg xmlns:dc="http://purl.org/dc/elements/1.1/" xmlns:cc="http://creativecommons.org/ns#" xmlns:rdf="http://www.w3.org/1999/02/22-rdf-syntax-ns#" xmlns:svg="http://www.w3.org/2000/svg" xmlns="http://www.w3.org/2000/svg" xmlns:sodipodi="http://sodipodi.sourceforge.net/DTD/sodipodi-0.dtd" xmlns:inkscape="http://www.inkscape.org/namespaces/inkscape" width="256" height="256" id="svg10914" version="1.1" inkscape:version="0.48.4 r9939" sodipodi:docname="user-videos.svg">
   <defs id="defs10916" />
   <sodipodi:namedview id="base" pagecolor="#ffffff" bordercolor="#666666" borderopacity="1.0" inkscape:pageopacity="0.0" inkscape:pageshadow="2" inkscape:zoom="0.9899495" inkscape:cx="196.03134" inkscape:cy="128.77811" inkscape:document-units="px" inkscape:current-layer="g37917" showgrid="false" inkscape:showpageshadow="false" inkscape:snap-page="true" inkscape:snap-bbox="true" inkscape:window-width="1366" inkscape:window-height="741" inkscape:window-x="0" inkscape:window-y="27" inkscape:window-maximized="1" showguides="true" inkscape:guide-bbox="true" inkscape:object-nodes="true" />
   <metadata id="metadata10919">
      <rdf:RDF>
         <cc:Work rdf:about="">
            <dc:format>image/svg+xml</dc:format>
            <dc:type rdf:resource="http://purl.org/dc/dcmitype/StillImage" />
            <dc:title></dc:title>
         </cc:Work>
      </rdf:RDF>
   </metadata>
   <g inkscape:label="Layer 1" inkscape:groupmode="layer" id="layer1" transform="translate(0,-796.36218)">
      <g id="g37917" transform="matrix(0,-1,-1,0,1744.1458,388.621)" style="fill:#6e7bff;fill-opacity:1">
         <path style="color:black;fill:#b7bde3;fill-opacity:1;fill-rule:nonzero;stroke:none;stroke-width:4;marker:none;visibility:visible;display:inline;overflow:visible;enable-background:accumulate" d="m -463.30635,1685.9796 c 0.2837,20.3759 -8.97041,39.4876 -27.42777,50.9756 -74.11453,28.2191 -159.56339,-44.7825 -163.91571,-125.9061 6.46856,-54.3302 47.47002,-103.7324 96.21911,-121.1528 17.53868,-4.0514 14.69803,-3.6165 31.39577,1.1257 6.1384,1.7435 -6.32848,-0.8857 -6.71462,5.6606 0,0 27.04494,75.2598 38.13348,106.8297 8.88365,25.292 20.0197,36.459 28.78881,61.7958 2.24107,6.862 3.42589,13.8458 3.52093,20.6715 z" id="path6222" inkscape:connector-curvature="0" sodipodi:nodetypes="scccssscs" />
         <path style="color:black;fill:#202754;fill-opacity:1;fill-rule:nonzero;stroke:white;stroke-width:10;stroke-opacity:1;marker:none;visibility:visible;display:inline;overflow:visible;enable-background:accumulate" d="m -509.64185,1626.4226 c -14.39434,46.1379 3.01757,72.6283 10.19894,107.8032 -75.02723,25.2183 -154.65471,-45.2347 -159.15207,-122.8519 -2.39666,-41.3624 25.14078,-80.5774 48.19367,-96.7497 28.33772,-19.8797 65.70467,-26.68 97.21983,-17.3615 25.88361,16.5171 13.80205,94.4431 3.53963,129.1599 z" id="rect6216" inkscape:connector-curvature="0" sodipodi:nodetypes="ccsscc" />
         <path style="font-size:medium;font-style:normal;font-variant:normal;font-weight:normal;font-stretch:normal;text-indent:0;text-align:start;text-decoration:none;line-height:normal;letter-spacing:normal;word-spacing:normal;text-transform:none;direction:ltr;block-progression:tb;writing-mode:lr-tb;text-anchor:start;baseline-shift:baseline;color:black;fill:#b7bde3;fill-opacity:1;fill-rule:nonzero;stroke:none;stroke-width:18.36207389999999862;marker:none;visibility:visible;display:inline;overflow:visible;enable-background:new;font-family:Sans;-inkscape-font-specification:Sans" d="m -562.86703,1634.3248 -23.25501,0 c 1.17617,2.4506 1.84564,5.1847 1.84564,8.0653 0,10.346 -8.51657,18.844 -18.86239,18.844 -10.34585,0 -18.84393,-8.498 -18.84393,-18.844 0,-10.3457 8.49808,-18.8438 18.84393,-18.8438 0.4057,0 0.79998,0.011 1.19967,0.037 l 36.08215,0 10.09386,-32.2063 -30.35893,0 c 1.17166,2.4467 1.84564,5.1722 1.84564,8.047 0,10.3458 -8.51657,18.8438 -18.86239,18.8438 -10.34585,0 -18.84393,-8.4981 -18.84393,-18.8438 0,-10.3459 8.49808,-18.844 18.84393,-18.844 0.4881,0 0.96033,0.018 1.43959,0.055 l 48.75429,0 c 6.7339,0 15.24673,5.8406 12.62309,13.9814 -3.93435,11.8098 -6.36915,20.3645 -9.77552,32.3231 -2.5366,7.5552 -12.76969,7.385 -12.76969,7.385 z" id="path32694" inkscape:connector-curvature="0" sodipodi:nodetypes="ccssssccccssssccccc" />
         <path style="font-size:medium;font-style:normal;font-variant:normal;font-weight:normal;font-stretch:normal;text-indent:0;text-align:start;text-decoration:none;line-height:normal;letter-spacing:normal;word-spacing:normal;text-transform:none;direction:ltr;block-progression:tb;writing-mode:lr-tb;text-anchor:start;baseline-shift:baseline;color:black;fill:#202754;fill-opacity:1;fill-rule:nonzero;stroke:none;stroke-width:18.36207389999999862;marker:none;visibility:visible;display:inline;overflow:visible;enable-background:new;font-family:Sans;-inkscape-font-specification:Sans" d="m -586.12205,1634.3248 c -3.08773,-5.7234 -8.39854,-9.7862 -14.61736,-10.7379 l 14.61736,0 0,10.7379 z" id="path37802" inkscape:connector-curvature="0" />
         <path inkscape:connector-curvature="0" id="path37809" d="m -586.12205,1591.3769 c -3.08773,-5.7234 -8.39854,-9.7862 -14.61736,-10.7379 l 14.61736,0 0,10.7379 z" style="font-size:medium;font-style:normal;font-variant:normal;font-weight:normal;font-stretch:normal;text-indent:0;text-align:start;text-decoration:none;line-height:normal;letter-spacing:normal;word-spacing:normal;text-transform:none;direction:ltr;block-progression:tb;writing-mode:lr-tb;text-anchor:start;baseline-shift:baseline;color:black;fill:#202754;fill-opacity:1;fill-rule:nonzero;stroke:none;stroke-width:18.36207389999999862;marker:none;visibility:visible;display:inline;overflow:visible;enable-background:new;font-family:Sans;-inkscape-font-specification:Sans" />
      </g>
   </g>
</svg>
