<?xml version="1.0" encoding="UTF-8" standalone="no"?>
<!-- Created with Inkscape (http://www.inkscape.org/) -->

<svg xmlns:dc="http://purl.org/dc/elements/1.1/" xmlns:cc="http://creativecommons.org/ns#" xmlns:rdf="http://www.w3.org/1999/02/22-rdf-syntax-ns#" xmlns:svg="http://www.w3.org/2000/svg" xmlns="http://www.w3.org/2000/svg" xmlns:sodipodi="http://sodipodi.sourceforge.net/DTD/sodipodi-0.dtd" xmlns:inkscape="http://www.inkscape.org/namespaces/inkscape" width="256" height="256" id="svg10914" version="1.1" inkscape:version="0.48.4 r9939" sodipodi:docname="books-edit.svg">
   <defs id="defs10916" />
   <sodipodi:namedview id="base" pagecolor="#ffffff" bordercolor="#666666" borderopacity="1.0" inkscape:pageopacity="0.0" inkscape:pageshadow="2" inkscape:zoom="1.979899" inkscape:cx="74.986101" inkscape:cy="125.91391" inkscape:document-units="px" inkscape:current-layer="layer1" showgrid="false" inkscape:showpageshadow="false" inkscape:snap-page="true" inkscape:snap-bbox="true" inkscape:window-width="1366" inkscape:window-height="741" inkscape:window-x="0" inkscape:window-y="27" inkscape:window-maximized="1" showguides="true" inkscape:guide-bbox="true" inkscape:object-nodes="true" />
   <metadata id="metadata10919">
      <rdf:RDF>
         <cc:Work rdf:about="">
            <dc:format>image/svg+xml</dc:format>
            <dc:type rdf:resource="http://purl.org/dc/dcmitype/StillImage" />
            <dc:title />
         </cc:Work>
      </rdf:RDF>
   </metadata>
   <g inkscape:label="Layer 1" inkscape:groupmode="layer" id="layer1" transform="translate(0,-796.36218)">
      <g id="g37917" transform="matrix(0,-1,-1,0,1744.1458,388.621)" style="fill:#6e7bff;fill-opacity:1">
         <path sodipodi:nodetypes="ssss" inkscape:connector-curvature="0" id="path32622-5" d="m -429.0518,1690.3302 c 82.80695,-118.5216 -103.69204,-267.1812 -201.24194,-170.6116 -91.90977,90.9861 26.87046,260.9183 141.2412,216.7302 23.86214,-9.2194 44.80092,-24.363 60.00074,-46.1186 z" style="color:black;fill:#00a275;fill-opacity:1;fill-rule:nonzero;stroke:none;stroke-width:4;marker:none;visibility:visible;display:inline;overflow:visible;enable-background:accumulate" />
      </g>
      <g id="g9890" transform="matrix(1.0444614,0,0,1.0444614,-5.5403044,-28.631825)">
         <path style="color:black;fill:white;fill-opacity:1;fill-rule:nonzero;stroke:none;stroke-width:6;marker:none;visibility:visible;display:inline;overflow:visible;enable-background:accumulate" d="m 66.405472,854.72095 0,37.51331 0,37.51331 c 0,0 14.337437,-1.29679 25.258396,1.78234 10.920962,3.07913 25.258402,12.92426 25.258402,12.92426 l 0,-37.51332 0,-37.51331 c 0,0 -7.54275,-7.92939 -25.258402,-12.92426 -17.715651,-4.99487 -25.258396,-1.78233 -25.258396,-1.78233 z" id="path9886" inkscape:connector-curvature="0" sodipodi:nodetypes="ccczccczc" />
         <path sodipodi:nodetypes="ccczccczc" inkscape:connector-curvature="0" id="path9888" d="m 66.405472,859.78559 0,37.51331 0,37.51331 c 0,0 14.337437,-1.29679 25.258396,1.78234 10.920962,3.07913 25.258402,12.92426 25.258402,12.92426 l 0,-37.51332 0,-37.51331 c 0,0 -7.54275,-7.92939 -25.258402,-12.92426 -17.715651,-4.99487 -25.258396,-1.78233 -25.258396,-1.78233 z" style="color:black;fill:#00a275;fill-opacity:1;fill-rule:nonzero;stroke:none;stroke-width:6;marker:none;visibility:visible;display:inline;overflow:visible;enable-background:accumulate" />
         <path sodipodi:nodetypes="ccczccczc" inkscape:connector-curvature="0" id="path9884" d="m 66.405472,865.25311 0,37.51331 0,37.51331 c 0,0 14.337437,-1.29679 25.258396,1.78234 10.920962,3.07913 25.258402,12.92426 25.258402,12.92426 l 0,-37.51332 0,-37.51331 c 0,0 -7.54275,-7.92939 -25.258402,-12.92426 -17.715651,-4.99487 -25.258396,-1.78233 -25.258396,-1.78233 z" style="color:black;fill:white;fill-opacity:1;fill-rule:nonzero;stroke:none;stroke-width:6;marker:none;visibility:visible;display:inline;overflow:visible;enable-background:accumulate" />
         <path style="color:black;fill:#00a275;fill-opacity:1;fill-rule:nonzero;stroke:none;stroke-width:6;marker:none;visibility:visible;display:inline;overflow:visible;enable-background:accumulate" d="m 66.405472,870.31775 0,37.51331 0,37.51331 c 0,0 14.337437,-1.29679 25.258396,1.78234 10.920962,3.07913 25.258402,12.92426 25.258402,12.92426 l 0,-37.51332 0,-37.51331 c 0,0 -7.54275,-7.92939 -25.258402,-12.92426 -17.715651,-4.99487 -25.258396,-1.78233 -25.258396,-1.78233 z" id="path9882" inkscape:connector-curvature="0" sodipodi:nodetypes="ccczccczc" />
         <path sodipodi:nodetypes="ccczccczc" inkscape:connector-curvature="0" id="rect9316" d="m 66.405472,879.53288 0,37.51331 0,37.51331 c 0,0 14.337437,-1.29679 25.258396,1.78234 10.920962,3.07913 25.258402,12.92426 25.258402,12.92426 l 0,-37.51332 0,-37.51331 c 0,0 -7.54275,-7.92939 -25.258402,-12.92426 -17.715651,-4.99487 -25.258396,-1.78233 -25.258396,-1.78233 z" style="color:black;fill:white;fill-opacity:1;fill-rule:nonzero;stroke:white;stroke-width:5.07006264;stroke-linecap:round;stroke-linejoin:round;stroke-opacity:1;marker:none;visibility:visible;display:inline;overflow:visible;enable-background:accumulate" />
         <g id="g9948" transform="translate(0,-11.833759)">
            <rect y="971.80957" x="136.93848" height="6.8672643" width="53.793571" id="rect9936" style="color:black;fill:white;fill-opacity:1;fill-rule:nonzero;stroke:none;stroke-width:6;marker:none;visibility:visible;display:inline;overflow:visible;enable-background:accumulate" />
            <rect style="color:black;fill:white;fill-opacity:1;fill-rule:nonzero;stroke:none;stroke-width:6;marker:none;visibility:visible;display:inline;overflow:visible;enable-background:accumulate" id="rect9938" width="53.793571" height="6.8672643" x="136.93848" y="959.67743" />
            <rect style="color:black;fill:white;fill-opacity:1;fill-rule:nonzero;stroke:none;stroke-width:6;marker:none;visibility:visible;display:inline;overflow:visible;enable-background:accumulate" id="rect9940" width="29.85779" height="6.8672643" x="136.93848" y="947.54529" />
            <rect y="935.41315" x="136.93848" height="6.8672643" width="29.85779" id="rect9942" style="color:black;fill:white;fill-opacity:1;fill-rule:nonzero;stroke:none;stroke-width:6;marker:none;visibility:visible;display:inline;overflow:visible;enable-background:accumulate" />
            <rect y="923.28101" x="136.93848" height="6.8672643" width="30.098356" id="rect9944" style="color:black;fill:white;fill-opacity:1;fill-rule:nonzero;stroke:none;stroke-width:6;marker:none;visibility:visible;display:inline;overflow:visible;enable-background:accumulate" />
            <rect style="color:black;fill:white;fill-opacity:1;fill-rule:nonzero;stroke:none;stroke-width:6;marker:none;visibility:visible;display:inline;overflow:visible;enable-background:accumulate" id="rect9946" width="53.793571" height="6.8672643" x="136.93848" y="911.14886" />
         </g>
      </g>
      <path inkscape:connector-curvature="0" id="path6154" d="m 127.57033,906.6528 0,77.0764" style="fill:none;stroke:white;stroke-width:4;stroke-linecap:round;stroke-linejoin:miter;stroke-opacity:1" />
   </g>
</svg>
