<?xml version="1.0" encoding="UTF-8" standalone="no"?>
<!-- Created with Inkscape (http://www.inkscape.org/) -->

<svg xmlns:dc="http://purl.org/dc/elements/1.1/" xmlns:cc="http://creativecommons.org/ns#" xmlns:rdf="http://www.w3.org/1999/02/22-rdf-syntax-ns#" xmlns:svg="http://www.w3.org/2000/svg" xmlns="http://www.w3.org/2000/svg" xmlns:sodipodi="http://sodipodi.sourceforge.net/DTD/sodipodi-0.dtd" xmlns:inkscape="http://www.inkscape.org/namespaces/inkscape" width="256" height="256" id="svg10914" version="1.1" inkscape:version="0.48.4 r9939" sodipodi:docname="dconf-editor-alt.svg">
   <defs id="defs10916" />
   <sodipodi:namedview id="base" pagecolor="#ffffff" bordercolor="#666666" borderopacity="1.0" inkscape:pageopacity="0.0" inkscape:pageshadow="2" inkscape:zoom="0.7" inkscape:cx="-20.603608" inkscape:cy="95.309601" inkscape:document-units="px" inkscape:current-layer="layer1" showgrid="false" inkscape:showpageshadow="false" inkscape:snap-page="true" inkscape:snap-bbox="true" inkscape:window-width="1366" inkscape:window-height="741" inkscape:window-x="0" inkscape:window-y="27" inkscape:window-maximized="1" inkscape:snap-object-midpoints="true" />
   <metadata id="metadata10919">
      <rdf:RDF>
         <cc:Work rdf:about="">
            <dc:format>image/svg+xml</dc:format>
            <dc:type rdf:resource="http://purl.org/dc/dcmitype/StillImage" />
            <dc:title></dc:title>
         </cc:Work>
      </rdf:RDF>
   </metadata>
   <g inkscape:label="Layer 1" inkscape:groupmode="layer" id="layer1" transform="translate(0,-796.36218)">
      <path style="color:black;fill:#f93e00;fill-opacity:1;fill-rule:nonzero;stroke:none;stroke-width:4;marker:none;visibility:visible;display:inline;overflow:visible;enable-background:accumulate" d="M 235.34797,998.05078 C 318.15492,879.52917 131.65593,730.86957 34.106065,827.43917 c -91.9098,90.98611 26.87043,260.91833 141.241165,216.73023 23.86214,-9.2194 44.80092,-24.363 60.00074,-46.11862 z" id="path32622-5" inkscape:connector-curvature="0" sodipodi:nodetypes="ssss" />
      <path id="path8604" d="m 53.200434,930.44331 c -0.322162,0 -0.577899,0.2491 -0.619415,0.60447 l -1.129228,8.57715 1.129228,8.42935 c 0.04152,0.35538 0.297253,0.60281 0.619415,0.60281 0.312198,0 0.566274,-0.24577 0.616093,-0.59949 l 0,0 0,-0.002 c 0,0 0,0 0,0.002 l 1.338467,-8.43267 -1.338467,-8.57881 c -0.04816,-0.35371 -0.305556,-0.60281 -0.616093,-0.60281 z m 6.350244,-4.68631 c -0.05314,-0.36866 -0.31718,-0.62273 -0.642663,-0.62273 -0.327144,0 -0.597827,0.26238 -0.642664,0.62273 0,0.003 -1.517814,13.86793 -1.517814,13.86793 l 1.517814,13.5607 c 0.04318,0.36367 0.313859,0.62605 0.642664,0.62605 0.323822,0 0.587862,-0.25573 0.641002,-0.62273 l 1.727054,-13.56402 z m 23.919686,-12.79182 c -0.622736,0 -1.137531,0.50981 -1.167422,1.15746 l -1.208938,25.51391 1.208938,16.48839 c 0.03155,0.64432 0.544686,1.15247 1.167422,1.15247 0.619414,0 1.132549,-0.50981 1.169082,-1.15579 l 0,0.005 1.366698,-16.49005 -1.366698,-25.51391 c -0.03653,-0.64765 -0.549668,-1.15746 -1.169082,-1.15746 z m -12.379976,8.86776 c -0.478261,0 -0.868509,0.38194 -0.906704,0.89175 l -1.361715,16.90522 1.361715,16.35554 c 0.03653,0.50649 0.428443,0.88843 0.906704,0.88843 0.473279,0 0.863527,-0.38194 0.905042,-0.88843 l 1.547706,-16.35554 -1.547706,-16.90854 c -0.04152,-0.50649 -0.431763,-0.88843 -0.905042,-0.88843 z m 24.9609,35.44281 c 0.772192,0 1.39991,-0.62273 1.431462,-1.41983 l 1.185689,-16.21106 -1.184029,-33.96818 c -0.03155,-0.7971 -0.659269,-1.41984 -1.431462,-1.41984 -0.778835,0 -1.408213,0.6244 -1.433122,1.4215 0,0.002 -1.051179,33.96486 -1.051179,33.96486 l 1.051179,16.2177 c 0.02491,0.79046 0.654287,1.41485 1.431462,1.41485 z m 25.756352,0.0764 c 1.0628,0 1.93961,-0.87515 1.95954,-1.95124 l 0,0.0116 0,-0.0116 0.827,-15.74608 -0.827,-39.23071 c -0.0183,-1.07443 -0.89674,-1.95124 -1.95954,-1.95124 -1.06446,0 -1.94294,0.87515 -1.95954,1.9529 l -0.73898,39.21577 c 0,0.0249 0.73898,15.76933 0.73898,15.76933 0.0166,1.06612 0.89674,1.94127 1.95954,1.94127 z m -12.97615,-0.0614 c 0.92497,0 1.67059,-0.7423 1.6955,-1.68886 l 0,0.0116 1.00634,-15.96528 -1.008,-34.21395 c -0.0249,-0.94656 -0.77053,-1.6872 -1.6955,-1.6872 -0.93162,0 -1.67724,0.74064 -1.69717,1.6872 l -0.89508,34.21561 0.89674,15.96196 c 0.0199,0.9366 0.76555,1.6789 1.69717,1.6789 z m -31.575194,-0.14946 c 0.549668,0 0.994716,-0.44006 1.036232,-1.01962 l 1.458032,-16.49171 -1.458032,-15.68797 c -0.03986,-0.57956 -0.484903,-1.01631 -1.036232,-1.01631 -0.557972,0 -1.00302,0.44007 -1.037893,1.02295 l -1.28366,15.68133 1.28366,16.49005 c 0.03653,0.58122 0.479921,1.02128 1.037893,1.02128 z m -12.282004,-0.90338 c 0.401872,0 0.727355,-0.31718 0.773853,-0.75559 l 1.63738,-15.85568 -1.63572,-16.45353 c -0.04816,-0.44006 -0.373641,-0.75724 -0.775513,-0.75724 -0.406854,0 -0.732338,0.31884 -0.773853,0.75724 0,0.002 -1.441426,16.45353 -1.441426,16.45353 l 1.441426,15.85236 c 0.03986,0.44007 0.365338,0.75891 0.773853,0.75891 z m 50.320358,-51.37323 c -1.00468,0 -1.81008,0.79876 -1.83001,1.82171 l -0.81703,32.96516 0.81703,15.86233 c 0.0199,1.00966 0.82367,1.80842 1.83001,1.80842 1.00302,0 1.80345,-0.7971 1.8267,-1.82005 l 0,0.0133 0.91666,-15.86233 -0.91666,-32.97014 c -0.0233,-1.01963 -0.82368,-1.81839 -1.8267,-1.81839 z m -25.557073,52.44434 c 0.694143,0 1.26706,-0.56628 1.300272,-1.28865 l 1.275363,-16.37878 -1.275363,-31.34937 c -0.03487,-0.72403 -0.606129,-1.28865 -1.300272,-1.28865 -0.700786,0 -1.272042,0.56628 -1.301933,1.28865 0,0.002 -1.129228,31.34937 -1.129228,31.34937 l 1.130888,16.38542 c 0.02823,0.71573 0.599487,1.28201 1.300273,1.28201 z m 14.241553,-1.54605 0,-0.008 1.09601,-16.1081 -1.09601,-35.11235 c -0.0266,-0.87183 -0.71407,-1.55601 -1.56265,-1.55601 -0.85357,0 -1.54107,0.68252 -1.56431,1.55601 l -0.973133,35.11069 0.974793,16.1164 c 0.0232,0.86353 0.71075,1.54605 1.56265,1.54605 0.85024,0 1.53442,-0.68252 1.56265,-1.55103 z m 82.89528,-36.35616 c -2.6022,0 -5.08484,0.52642 -7.34662,1.47464 -1.51117,-17.11777 -15.86566,-30.54561 -33.37533,-30.54561 -4.28442,0 -8.46091,0.8436 -12.14916,2.27008 -1.43312,0.55465 -1.81507,1.12591 -1.82835,2.23355 l 0,60.28084 c 0.0149,1.16244 0.91666,2.13058 2.05087,2.24517 0.0482,0.005 52.30817,0.0316 52.64693,0.0316 10.48854,0 18.99262,-8.50408 18.99262,-18.99427 0,-10.49019 -8.50242,-18.99595 -18.99096,-18.99595 z M 128.2924,894.78628 c -1.14086,0 -2.07745,0.93659 -2.09406,2.08741 l -0.85688,42.78611 0.85854,15.52854 c 0.0149,1.13421 0.95154,2.06915 2.0924,2.06915 1.13753,0 2.07412,-0.93494 2.09073,-2.08575 l 0,0.0183 0.93161,-15.5302 -0.93161,-42.78944 c -0.0166,-1.14749 -0.9532,-2.08408 -2.09073,-2.08408 z" inkscape:connector-curvature="0" style="fill:white;fill-opacity:1" sodipodi:nodetypes="scccsccccccscscccscccscccsccccsscccscccsscccscccsscccccscccssccccscccsscccscccsscccscccsscccsccccsscccscccsccccscccsccscsccccsssscccsccccs" />
   </g>
</svg>
