<?xml version="1.0" encoding="UTF-8" standalone="no"?>
<!-- Created with Inkscape (http://www.inkscape.org/) -->

<svg xmlns:dc="http://purl.org/dc/elements/1.1/" xmlns:cc="http://creativecommons.org/ns#" xmlns:rdf="http://www.w3.org/1999/02/22-rdf-syntax-ns#" xmlns:svg="http://www.w3.org/2000/svg" xmlns="http://www.w3.org/2000/svg" xmlns:sodipodi="http://sodipodi.sourceforge.net/DTD/sodipodi-0.dtd" xmlns:inkscape="http://www.inkscape.org/namespaces/inkscape" width="256" height="256" id="svg10914" version="1.1" inkscape:version="0.48.4 r9939" sodipodi:docname="gimp.svg">
   <defs id="defs10916" />
   <sodipodi:namedview id="base" pagecolor="#ffffff" bordercolor="#666666" borderopacity="1.0" inkscape:pageopacity="0.0" inkscape:pageshadow="2" inkscape:zoom="1.4" inkscape:cx="290.01793" inkscape:cy="113.22423" inkscape:document-units="px" inkscape:current-layer="layer1" showgrid="false" inkscape:showpageshadow="false" inkscape:snap-page="true" inkscape:snap-bbox="true" inkscape:window-width="1366" inkscape:window-height="741" inkscape:window-x="0" inkscape:window-y="27" inkscape:window-maximized="1" inkscape:snap-object-midpoints="true" showguides="true" inkscape:guide-bbox="true" />
   <metadata id="metadata10919">
      <rdf:RDF>
         <cc:Work rdf:about="">
            <dc:format>image/svg+xml</dc:format>
            <dc:type rdf:resource="http://purl.org/dc/dcmitype/StillImage" />
            <dc:title />
         </cc:Work>
      </rdf:RDF>
   </metadata>
   <g inkscape:label="Layer 1" inkscape:groupmode="layer" id="layer1" transform="translate(0,-796.36218)">
      <path style="color:black;fill:#4a463b;fill-opacity:1;fill-rule:nonzero;stroke:none;stroke-width:4;marker:none;visibility:visible;display:inline;overflow:visible;enable-background:accumulate" d="M 30.670791,836.37399 C 136.3539,715.46567 333.32704,896.20298 223.90947,1012.963 131.49451,1129.9103 -78.423516,961.18492 30.670791,836.37399 z" id="path32551" inkscape:connector-curvature="0" sodipodi:nodetypes="scs" />
      <text y="814.46442" xml:space="preserve" x="297.14969" style="font-size:18px;font-style:normal;font-variant:normal;font-weight:normal;font-stretch:normal;fill:black;fill-opacity:1;stroke:none;display:none;enable-background:new;font-family:DejaVu Sans;-inkscape-font-specification:DejaVu Sans" inkscape:label="context" id="context"><tspan style="font-style:normal;font-variant:normal;font-weight:normal;font-stretch:normal;font-family:DejaVu Sans;-inkscape-font-specification:DejaVu Sans" y="814.46442" x="297.14969" sodipodi:role="line" id="tspan3933">apps</tspan></text>
      <text y="814.46442" xml:space="preserve" x="404.63113" style="font-size:18px;font-style:normal;font-variant:normal;font-weight:bold;font-stretch:normal;text-align:start;line-height:125%;writing-mode:lr-tb;text-anchor:start;fill:black;fill-opacity:1;stroke:none;display:none;enable-background:new;font-family:DejaVu Sans;-inkscape-font-specification:DejaVu Sans Bold" sodipodi:linespacing="125%" inkscape:label="icon-name" id="icon-name"><tspan style="font-size:18px;font-style:normal;font-variant:normal;font-weight:bold;font-stretch:normal;font-family:DejaVu Sans;-inkscape-font-specification:DejaVu Sans Bold" y="814.46442" x="404.63113" sodipodi:role="line" id="tspan3937">web-memrise</tspan></text>
      <rect style="fill:#eeeeec;fill-opacity:1;fill-rule:nonzero;stroke:none;stroke-width:2;marker:none;visibility:visible;display:none;overflow:visible;enable-background:accumulate" id="rect16x16" width="16" height="16" x="698.14288" y="934.7193" inkscape:label="16x16" />
      <rect style="fill:#d4d4d4;fill-opacity:1;fill-rule:nonzero;stroke:none;stroke-width:2;marker:none;visibility:visible;display:none;overflow:visible;enable-background:accumulate" id="rect24x24" width="24" height="24" x="698.14288" y="894.7193" inkscape:label="24x24" />
      <rect style="fill:#eeeeec;fill-opacity:1;fill-rule:nonzero;stroke:none;stroke-width:2;marker:none;visibility:visible;display:none;overflow:visible;enable-background:accumulate" id="rect32x32" width="32" height="32" x="698.14288" y="846.7193" inkscape:label="32x32" />
      <rect inkscape:label="22x22" y="895.7193" x="699.14288" height="22" width="22" id="rect22x22" style="fill:#eeeeec;fill-opacity:1;fill-rule:nonzero;stroke:none;stroke-width:2;marker:none;visibility:visible;display:none;overflow:visible;enable-background:accumulate" />
      <rect inkscape:label="48x48" y="1014.7193" x="570.14288" height="48" width="48" id="rect48x48" style="fill:#eeeeec;fill-opacity:1;fill-rule:nonzero;stroke:none;stroke-width:2;marker:none;visibility:visible;display:none;overflow:visible;enable-background:accumulate" />
      <rect style="fill:#eeeeec;fill-opacity:1;fill-rule:nonzero;stroke:none;stroke-width:2;marker:none;visibility:visible;display:none;overflow:visible;enable-background:accumulate" id="rect256x256" width="256" height="256" x="298.14285" y="822.7193" inkscape:label="256x256" />
      <rect style="fill:#eeeeec;fill-opacity:1;fill-rule:nonzero;stroke:none;stroke-width:2;marker:none;visibility:visible;display:none;overflow:visible;enable-background:accumulate" id="rect64x64" width="64" height="64" x="570.14288" y="934.7193" inkscape:label="64x64" />
      <rect style="fill:#eeeeec;fill-opacity:1;fill-rule:nonzero;stroke:none;stroke-width:2;marker:none;visibility:visible;display:none;overflow:visible;enable-background:accumulate" id="rect96x96" width="96" height="96" x="570.14288" y="822.7193" inkscape:label="96x96" />
      <rect style="fill:#eeeeec;fill-opacity:1;fill-rule:nonzero;stroke:none;stroke-width:2;marker:none;visibility:visible;display:none;overflow:visible;enable-background:accumulate" id="rect6282" width="512" height="512" x="455.28564" y="562.29956" inkscape:label="256x256" />
      <rect inkscape:label="48x48" y="562.2959" x="1002.3481" height="48" width="48" id="rect6284" style="fill:#eeeeec;fill-opacity:1;fill-rule:nonzero;stroke:none;stroke-width:2;marker:none;visibility:visible;display:none;overflow:visible;enable-background:accumulate" />
      <rect style="fill:#eeeeec;fill-opacity:1;fill-rule:nonzero;stroke:none;stroke-width:2;marker:none;visibility:visible;display:none;overflow:visible;enable-background:accumulate" id="rect6592" width="32" height="32" x="1009.2856" y="638.2959" inkscape:label="32x32" />
      <rect inkscape:label="22x22" y="689.3584" x="1009.2856" height="22" width="22" id="rect6749" style="fill:#eeeeec;fill-opacity:1;fill-rule:nonzero;stroke:none;stroke-width:2;marker:none;visibility:visible;display:none;overflow:visible;enable-background:accumulate" />
      <rect style="fill:#eeeeec;fill-opacity:1;fill-rule:nonzero;stroke:none;stroke-width:2;marker:none;visibility:visible;display:none;overflow:visible;enable-background:accumulate" id="rect6833" width="16" height="16" x="1009.2856" y="731.29956" inkscape:label="16x16" />
      <rect style="fill:#eeeeec;fill-opacity:1;fill-rule:nonzero;stroke:none;stroke-width:2;marker:none;visibility:visible;display:none;overflow:visible;enable-background:accumulate" id="rect5028" width="24" height="24" x="1008.2427" y="688.25299" inkscape:label="24x24" />
      <text inkscape:label="context" sodipodi:linespacing="125%" id="context-8" y="528.29956" x="456.28564" style="font-size:20px;font-style:normal;font-variant:normal;font-weight:normal;font-stretch:normal;text-align:start;line-height:125%;writing-mode:lr-tb;text-anchor:start;fill:black;fill-opacity:1;stroke:none;display:none;enable-background:new;font-family:Trebuchet MS;-inkscape-font-specification:Trebuchet MS" xml:space="preserve"><tspan y="528.29956" x="456.28564" id="tspan16843" sodipodi:role="line">apps</tspan></text>
      <text inkscape:label="icon-name" sodipodi:linespacing="125%" id="icon-name-0" y="528.29956" x="594.28564" style="font-size:20px;font-style:normal;font-variant:normal;font-weight:normal;font-stretch:normal;text-align:start;line-height:125%;writing-mode:lr-tb;text-anchor:start;fill:black;fill-opacity:1;stroke:none;display:none;enable-background:new;font-family:Trebuchet MS;-inkscape-font-specification:Trebuchet MS" xml:space="preserve"><tspan y="528.29956" x="594.28564" id="tspan16847" sodipodi:role="line">gimp</tspan></text>
      <path inkscape:connector-curvature="0" id="rect3068-1-4" d="m 455.4106,562.29957 0,476.00003 0,36 475.875,0 36,0 0.125,0 0,-36 -0.125,0 0,-476.00003 -36,0 0,476.00003 -439.875,0 0,-476.00003 -36,0 z" style="opacity:0.29455285;fill:#729fcf;fill-opacity:1;fill-rule:nonzero;stroke:none;stroke-width:2;marker:none;visibility:visible;display:none;overflow:visible;enable-background:accumulate" />
      <g id="g15707">
         <path inkscape:connector-curvature="0" id="path4323-4" d="m 186.17456,859.42001 c -0.72481,0.12471 -1.50968,1.07697 -2.14705,2.99692 -1.45682,4.38846 -11.64333,34.8133 -69.71184,36.2761 C 86.606275,899.38494 74.774261,874.8519 74.774261,874.8519 l -0.738046,31.44526 c -0.404633,9.30653 1.206708,18.04494 -22.588699,25.60797 5.34034,29.39958 155.723374,103.46027 136.784644,-69.15272 -0.28992,-2.28141 -1.12569,-3.49274 -2.0576,-3.3324 z m -44.50644,79.03806 c 0,0 5.74319,1.0928 9.48278,5.05453 2.55956,2.71161 2.79629,7.08421 2.23651,13.08354 -0.55981,-2.54926 -1.10785,-7.9713 -1.83394,-9.77352 -7.90818,9.61701 -29.7422,13.97408 -56.91904,4.33881 29.50415,5.92537 45.50884,-0.51779 54.30233,-7.33573 -2.32187,-3.01145 -7.26864,-5.36763 -7.26864,-5.36763 z" style="fill:white;fill-opacity:1;fill-rule:evenodd;stroke:none;stroke-width:0.9999997;marker:none;visibility:visible;display:inline;overflow:visible" />
         <path inkscape:connector-curvature="0" id="path15610" d="m 140.70545,948.68288 c -0.39027,0.0505 -0.71064,0.22427 -0.98056,0.49028 0.39011,-0.16624 0.79426,-0.31795 1.16912,-0.49028 -0.0606,0.001 -0.12969,-0.007 -0.18856,0 z m 4.29934,3.31879 c -1.2222,0.65492 -2.53729,1.24442 -3.95992,1.77254 1.84375,2.7368 5.68371,8.41926 10.67296,15.65116 2.36663,-0.88597 4.67229,-1.95691 6.90159,-3.20567 -5.53746,-6.07532 -10.51987,-11.1384 -13.61463,-14.21803 z" style="fill:#d3d0c7;fill-opacity:1;fill-rule:nonzero;stroke:none;stroke-width:0.2;marker:none;visibility:visible;display:inline;overflow:visible" />
         <path transform="matrix(3.3416761,-2.420713,2.4107889,3.3554325,-22.835548,856.4906)" d="m 10.429825,27.228739 c 0,3.368272 -1.9390679,6.098796 -4.3310291,6.098796 -2.3919612,0 -4.3310289,-2.730524 -4.3310289,-6.098796 0,-3.368272 1.9390677,-6.098796 4.3310289,-6.098796 2.3919612,0 4.3310291,2.730524 4.3310291,6.098796 z" sodipodi:ry="6.0987959" sodipodi:rx="4.3310289" sodipodi:cy="27.228739" sodipodi:cx="6.0987959" id="path15616" style="fill:#4a463b;fill-opacity:1;fill-rule:evenodd;stroke:none;stroke-width:0.19599561;marker:none;visibility:visible;display:inline;overflow:visible" sodipodi:type="arc" />
         <path sodipodi:type="arc" style="fill:#d3d0c7;fill-opacity:1;fill-rule:evenodd;stroke:none;stroke-width:0.19599561;marker:none;visibility:visible;display:inline;overflow:visible" id="path15607" sodipodi:cx="6.0987959" sodipodi:cy="27.228739" sodipodi:rx="4.3310289" sodipodi:ry="6.0987959" d="m 10.429825,27.228739 c 0,3.368272 -1.9390679,6.098796 -4.3310291,6.098796 -2.3919612,0 -4.3310289,-2.730524 -4.3310289,-6.098796 0,-3.368272 1.9390677,-6.098796 4.3310289,-6.098796 2.3919612,0 4.3310291,2.730524 4.3310291,6.098796 z" transform="matrix(3.3416761,-2.420713,2.4107889,3.3554325,-25.222016,853.83657)" />
         <path transform="matrix(0.99630174,-0.72172182,0.71876297,1.0004031,29.195351,897.47172)" d="m 10.429825,27.228739 c 0,3.368272 -1.9390679,6.098796 -4.3310291,6.098796 -2.3919612,0 -4.3310289,-2.730524 -4.3310289,-6.098796 0,-3.368272 1.9390677,-6.098796 4.3310289,-6.098796 2.3919612,0 4.3310291,2.730524 4.3310291,6.098796 z" sodipodi:ry="6.0987959" sodipodi:rx="4.3310289" sodipodi:cy="27.228739" sodipodi:cx="6.0987959" id="path5198-8" style="fill:white;fill-opacity:1;fill-rule:evenodd;stroke:none;stroke-width:0.19599561;marker:none;visibility:visible;display:inline;overflow:visible" sodipodi:type="arc" />
         <path sodipodi:type="arc" style="fill:#d3d0c7;fill-opacity:1;fill-rule:nonzero;stroke:none;stroke-width:79.61721802;marker:none;visibility:visible;display:inline;overflow:visible" id="path15599" sodipodi:cx="203.64676" sodipodi:cy="533.34583" sodipodi:rx="478.00418" sodipodi:ry="281.4285" d="m 681.65094,533.34583 c 0,155.42866 -214.00976,281.42849 -478.00418,281.42849 -263.99442,0 -478.00418,-125.99983 -478.00418,-281.42849 0,-155.42867 214.00976,-281.4285 478.00418,-281.4285 263.99442,0 478.00418,125.99983 478.00418,281.4285 z" transform="matrix(0.0279221,0,0,0.0423952,84.45743,894.35969)" />
         <path transform="matrix(0.0279221,0,0,0.0423952,82.631231,888.88109)" d="m 681.65094,533.34583 c 0,155.42866 -214.00976,281.42849 -478.00418,281.42849 -263.99442,0 -478.00418,-125.99983 -478.00418,-281.42849 0,-155.42867 214.00976,-281.4285 478.00418,-281.4285 263.99442,0 478.00418,125.99983 478.00418,281.4285 z" sodipodi:ry="281.4285" sodipodi:rx="478.00418" sodipodi:cy="533.34583" sodipodi:cx="203.64676" id="path15605" style="fill:#4a463b;fill-opacity:1;fill-rule:nonzero;stroke:none;stroke-width:79.61721802;marker:none;visibility:visible;display:inline;overflow:visible" sodipodi:type="arc" />
         <path transform="matrix(0.0279221,0,0,0.0423952,82.631231,890.90078)" d="m 681.65094,533.34583 c 0,155.42866 -214.00976,281.42849 -478.00418,281.42849 -263.99442,0 -478.00418,-125.99983 -478.00418,-281.42849 0,-155.42867 214.00976,-281.4285 478.00418,-281.4285 263.99442,0 478.00418,125.99983 478.00418,281.4285 z" sodipodi:ry="281.4285" sodipodi:rx="478.00418" sodipodi:cy="533.34583" sodipodi:cx="203.64676" id="path6217-5" style="fill:white;fill-opacity:1;fill-rule:nonzero;stroke:none;stroke-width:79.61721802;marker:none;visibility:visible;display:inline;overflow:visible" sodipodi:type="arc" />
         <path sodipodi:type="arc" style="fill:#d3d0c7;fill-opacity:1;fill-rule:nonzero;stroke:none;stroke-width:50.47351074;marker:none;visibility:visible;display:inline;overflow:visible" id="path15601" sodipodi:cx="203.64676" sodipodi:cy="533.34583" sodipodi:rx="478.00418" sodipodi:ry="281.4285" d="m 681.65094,533.34583 c 0,155.42866 -214.00976,281.42849 -478.00418,281.42849 -263.99442,0 -478.00418,-125.99983 -478.00418,-281.42849 0,-155.42867 214.00976,-281.4285 478.00418,-281.4285 263.99442,0 478.00418,125.99983 478.00418,281.4285 z" transform="matrix(0.04404448,0,0,0.06687444,120.01887,877.52968)" />
         <path transform="matrix(0.04404448,0,0,0.06687444,116.36649,873.87728)" d="m 681.65094,533.34583 c 0,155.42866 -214.00976,281.42849 -478.00418,281.42849 -263.99442,0 -478.00418,-125.99983 -478.00418,-281.42849 0,-155.42867 214.00976,-281.4285 478.00418,-281.4285 263.99442,0 478.00418,125.99983 478.00418,281.4285 z" sodipodi:ry="281.4285" sodipodi:rx="478.00418" sodipodi:cy="533.34583" sodipodi:cx="203.64676" id="path15603" style="fill:#4a463b;fill-opacity:1;fill-rule:nonzero;stroke:none;stroke-width:50.47351074;marker:none;visibility:visible;display:inline;overflow:visible" sodipodi:type="arc" />
         <path transform="matrix(0.04404448,0,0,0.06687444,118.19268,874.07076)" d="m 681.65094,533.34583 c 0,155.42866 -214.00976,281.42849 -478.00418,281.42849 -263.99442,0 -478.00418,-125.99983 -478.00418,-281.42849 0,-155.42867 214.00976,-281.4285 478.00418,-281.4285 263.99442,0 478.00418,125.99983 478.00418,281.4285 z" sodipodi:ry="281.4285" sodipodi:rx="478.00418" sodipodi:cy="533.34583" sodipodi:cx="203.64676" id="path15589" style="fill:white;fill-opacity:1;fill-rule:nonzero;stroke:none;stroke-width:50.47351074;marker:none;visibility:visible;display:inline;overflow:visible" sodipodi:type="arc" />
         <path sodipodi:type="arc" style="fill:#4a463b;fill-opacity:1;fill-rule:nonzero;stroke:none;stroke-width:4.37477016;marker:none;visibility:visible;display:inline;overflow:visible" id="path15595" sodipodi:cx="203.64676" sodipodi:cy="533.34583" sodipodi:rx="478.00418" sodipodi:ry="281.4285" d="m 681.65094,533.34583 c 0,155.42866 -214.00976,281.42849 -478.00418,281.42849 -263.99442,0 -478.00418,-125.99983 -478.00418,-281.42849 0,-155.42867 214.00976,-281.4285 478.00418,-281.4285 263.99442,0 478.00418,125.99983 478.00418,281.4285 z" transform="matrix(0.01265863,0,0,0.01922008,89.391988,905.08732)" />
         <path sodipodi:type="arc" style="fill:#4a463b;fill-opacity:1;fill-rule:nonzero;stroke:none;stroke-width:4.37477016;marker:none;visibility:visible;display:inline;overflow:visible" id="path15597" sodipodi:cx="203.64676" sodipodi:cy="533.34583" sodipodi:rx="478.00418" sodipodi:ry="281.4285" d="m 681.65094,533.34583 c 0,155.42866 -214.00976,281.42849 -478.00418,281.42849 -263.99442,0 -478.00418,-125.99983 -478.00418,-281.42849 0,-155.42867 214.00976,-281.4285 478.00418,-281.4285 263.99442,0 478.00418,125.99983 478.00418,281.4285 z" transform="matrix(0.02114928,0,0,0.03211175,126.50761,894.43749)" />
         <path inkscape:transform-center-y="32.001049" inkscape:transform-center-x="-35.658314" inkscape:connector-curvature="0" id="path6933" d="m 140.64077,948.61495 c -1.54142,0.14479 -2.18803,2.20987 -0.93694,3.18762 0,0 23.97421,19.81653 36.60168,29.18763 -0.0467,0.29295 -0.0627,0.58156 -0.0408,0.85547 l 1.74148,-0.27496 0.70271,1.02859 15.56131,9.89895 c -0.80063,2.75238 -0.42378,6.40814 1.4054,9.79705 5.31719,9.8515 18.00551,14.0744 18.00551,14.0744 -5.1878,-13.2335 -1.41213,-23.98896 -11.64044,-27.78215 -1.63219,-0.60531 -3.05428,-0.63037 -4.23658,-0.22404 l -13.74855,-12.74031 -1.18136,-0.35647 -0.16295,-1.76183 c -0.24895,0.0919 -0.52602,0.22888 -0.80453,0.387 -12.54005,-10.64939 -40.56332,-25.21586 -40.56332,-25.21586 -0.25383,-0.0667 -0.4825,-0.0818 -0.70269,-0.0611 z m 56.88842,39.86059 c -1.55451,0.64625 -2.66454,2.06332 -3.22835,3.9107 0.0266,-1.84601 1.44678,-3.41941 3.22835,-3.9107 z" style="fill:white;fill-opacity:1;fill-rule:nonzero;stroke:none;stroke-width:0.2;marker:none;visibility:visible;display:inline;overflow:visible" />
      </g>
   </g>
</svg>
