<?xml version="1.0" encoding="UTF-8" standalone="no"?>
<!-- Created with Inkscape (http://www.inkscape.org/) -->

<svg xmlns:dc="http://purl.org/dc/elements/1.1/" xmlns:cc="http://creativecommons.org/ns#" xmlns:rdf="http://www.w3.org/1999/02/22-rdf-syntax-ns#" xmlns:svg="http://www.w3.org/2000/svg" xmlns="http://www.w3.org/2000/svg" xmlns:sodipodi="http://sodipodi.sourceforge.net/DTD/sodipodi-0.dtd" xmlns:inkscape="http://www.inkscape.org/namespaces/inkscape" width="256" height="256" id="svg10914" version="1.1" inkscape:version="0.48.4 r9939" sodipodi:docname="pyrename.svg">
   <defs id="defs10916" />
   <sodipodi:namedview id="base" pagecolor="#ffffff" bordercolor="#666666" borderopacity="1.0" inkscape:pageopacity="0.0" inkscape:pageshadow="2" inkscape:zoom="0.7" inkscape:cx="115.34507" inkscape:cy="216.9195" inkscape:document-units="px" inkscape:current-layer="g7077" showgrid="false" inkscape:showpageshadow="false" inkscape:snap-page="true" inkscape:snap-bbox="true" inkscape:window-width="1366" inkscape:window-height="741" inkscape:window-x="0" inkscape:window-y="27" inkscape:window-maximized="1" inkscape:snap-object-midpoints="true" showguides="true" inkscape:guide-bbox="true" inkscape:object-nodes="true" />
   <metadata id="metadata10919">
      <rdf:RDF>
         <cc:Work rdf:about="">
            <dc:format>image/svg+xml</dc:format>
            <dc:type rdf:resource="http://purl.org/dc/dcmitype/StillImage" />
            <dc:title></dc:title>
         </cc:Work>
      </rdf:RDF>
   </metadata>
   <g inkscape:label="Layer 1" inkscape:groupmode="layer" id="layer1" transform="translate(0,-796.36218)">
      <text y="814.46442" xml:space="preserve" x="297.14969" style="font-size:18px;font-style:normal;font-variant:normal;font-weight:normal;font-stretch:normal;fill:black;fill-opacity:1;stroke:none;display:none;enable-background:new;font-family:DejaVu Sans;-inkscape-font-specification:DejaVu Sans" inkscape:label="context" id="context"><tspan style="font-style:normal;font-variant:normal;font-weight:normal;font-stretch:normal;font-family:DejaVu Sans;-inkscape-font-specification:DejaVu Sans" y="814.46442" x="297.14969" sodipodi:role="line" id="tspan3933">apps</tspan></text>
      <text y="814.46442" xml:space="preserve" x="404.63113" style="font-size:18px;font-style:normal;font-variant:normal;font-weight:bold;font-stretch:normal;text-align:start;line-height:125%;writing-mode:lr-tb;text-anchor:start;fill:black;fill-opacity:1;stroke:none;display:none;enable-background:new;font-family:DejaVu Sans;-inkscape-font-specification:DejaVu Sans Bold" sodipodi:linespacing="125%" inkscape:label="icon-name" id="icon-name"><tspan style="font-size:18px;font-style:normal;font-variant:normal;font-weight:bold;font-stretch:normal;font-family:DejaVu Sans;-inkscape-font-specification:DejaVu Sans Bold" y="814.46442" x="404.63113" sodipodi:role="line" id="tspan3937">web-memrise</tspan></text>
      <rect style="fill:#eeeeec;fill-opacity:1;fill-rule:nonzero;stroke:none;stroke-width:2;marker:none;visibility:visible;display:none;overflow:visible;enable-background:accumulate" id="rect16x16" width="16" height="16" x="698.14288" y="934.7193" inkscape:label="16x16" />
      <rect style="fill:#d4d4d4;fill-opacity:1;fill-rule:nonzero;stroke:none;stroke-width:2;marker:none;visibility:visible;display:none;overflow:visible;enable-background:accumulate" id="rect24x24" width="24" height="24" x="698.14288" y="894.7193" inkscape:label="24x24" />
      <rect style="fill:#eeeeec;fill-opacity:1;fill-rule:nonzero;stroke:none;stroke-width:2;marker:none;visibility:visible;display:none;overflow:visible;enable-background:accumulate" id="rect32x32" width="32" height="32" x="698.14288" y="846.7193" inkscape:label="32x32" />
      <rect inkscape:label="22x22" y="895.7193" x="699.14288" height="22" width="22" id="rect22x22" style="fill:#eeeeec;fill-opacity:1;fill-rule:nonzero;stroke:none;stroke-width:2;marker:none;visibility:visible;display:none;overflow:visible;enable-background:accumulate" />
      <rect inkscape:label="48x48" y="1014.7193" x="570.14288" height="48" width="48" id="rect48x48" style="fill:#eeeeec;fill-opacity:1;fill-rule:nonzero;stroke:none;stroke-width:2;marker:none;visibility:visible;display:none;overflow:visible;enable-background:accumulate" />
      <rect style="fill:#eeeeec;fill-opacity:1;fill-rule:nonzero;stroke:none;stroke-width:2;marker:none;visibility:visible;display:none;overflow:visible;enable-background:accumulate" id="rect256x256" width="256" height="256" x="298.14285" y="822.7193" inkscape:label="256x256" />
      <rect style="fill:#eeeeec;fill-opacity:1;fill-rule:nonzero;stroke:none;stroke-width:2;marker:none;visibility:visible;display:none;overflow:visible;enable-background:accumulate" id="rect64x64" width="64" height="64" x="570.14288" y="934.7193" inkscape:label="64x64" />
      <rect style="fill:#eeeeec;fill-opacity:1;fill-rule:nonzero;stroke:none;stroke-width:2;marker:none;visibility:visible;display:none;overflow:visible;enable-background:accumulate" id="rect96x96" width="96" height="96" x="570.14288" y="822.7193" inkscape:label="96x96" />
      <rect style="fill:#eeeeec;fill-opacity:1;fill-rule:nonzero;stroke:none;stroke-width:2;marker:none;visibility:visible;display:none;overflow:visible;enable-background:accumulate" id="rect6282" width="512" height="512" x="455.28564" y="562.29956" inkscape:label="256x256" />
      <rect inkscape:label="48x48" y="562.2959" x="1002.3481" height="48" width="48" id="rect6284" style="fill:#eeeeec;fill-opacity:1;fill-rule:nonzero;stroke:none;stroke-width:2;marker:none;visibility:visible;display:none;overflow:visible;enable-background:accumulate" />
      <rect style="fill:#eeeeec;fill-opacity:1;fill-rule:nonzero;stroke:none;stroke-width:2;marker:none;visibility:visible;display:none;overflow:visible;enable-background:accumulate" id="rect6592" width="32" height="32" x="1009.2856" y="638.2959" inkscape:label="32x32" />
      <rect inkscape:label="22x22" y="689.3584" x="1009.2856" height="22" width="22" id="rect6749" style="fill:#eeeeec;fill-opacity:1;fill-rule:nonzero;stroke:none;stroke-width:2;marker:none;visibility:visible;display:none;overflow:visible;enable-background:accumulate" />
      <rect style="fill:#eeeeec;fill-opacity:1;fill-rule:nonzero;stroke:none;stroke-width:2;marker:none;visibility:visible;display:none;overflow:visible;enable-background:accumulate" id="rect6833" width="16" height="16" x="1009.2856" y="731.29956" inkscape:label="16x16" />
      <rect style="fill:#eeeeec;fill-opacity:1;fill-rule:nonzero;stroke:none;stroke-width:2;marker:none;visibility:visible;display:none;overflow:visible;enable-background:accumulate" id="rect5028" width="24" height="24" x="1008.2427" y="688.25299" inkscape:label="24x24" />
      <text inkscape:label="context" sodipodi:linespacing="125%" id="context-8" y="528.29956" x="456.28564" style="font-size:20px;font-style:normal;font-variant:normal;font-weight:normal;font-stretch:normal;text-align:start;line-height:125%;writing-mode:lr-tb;text-anchor:start;fill:black;fill-opacity:1;stroke:none;display:none;enable-background:new;font-family:Trebuchet MS;-inkscape-font-specification:Trebuchet MS" xml:space="preserve"><tspan y="528.29956" x="456.28564" id="tspan16843" sodipodi:role="line">apps</tspan></text>
      <text inkscape:label="icon-name" sodipodi:linespacing="125%" id="icon-name-0" y="528.29956" x="594.28564" style="font-size:20px;font-style:normal;font-variant:normal;font-weight:normal;font-stretch:normal;text-align:start;line-height:125%;writing-mode:lr-tb;text-anchor:start;fill:black;fill-opacity:1;stroke:none;display:none;enable-background:new;font-family:Trebuchet MS;-inkscape-font-specification:Trebuchet MS" xml:space="preserve"><tspan y="528.29956" x="594.28564" id="tspan16847" sodipodi:role="line">gimp</tspan></text>
      <path inkscape:connector-curvature="0" id="rect3068-1-4" d="m 455.4106,562.29957 0,476.00003 0,36 475.875,0 36,0 0.125,0 0,-36 -0.125,0 0,-476.00003 -36,0 0,476.00003 -439.875,0 0,-476.00003 -36,0 z" style="opacity:0.29455285;fill:#729fcf;fill-opacity:1;fill-rule:nonzero;stroke:none;stroke-width:2;marker:none;visibility:visible;display:none;overflow:visible;enable-background:accumulate" />
      <g id="g7077">
         <path sodipodi:nodetypes="scs" inkscape:connector-curvature="0" id="path32551" d="M 30.670791,836.37399 C 136.3539,715.46567 333.32704,896.20298 223.90947,1012.963 131.49451,1129.9103 -78.423516,961.18492 30.670791,836.37399 z" style="color:black;fill:#5aa58c;fill-opacity:1;fill-rule:nonzero;stroke:none;stroke-width:4;marker:none;visibility:visible;display:inline;overflow:visible;enable-background:accumulate" />
         <path sodipodi:nodetypes="cssssc" inkscape:connector-curvature="0" id="rect7072" d="m 151.96171,978.18519 0,8.90941 c 0,7.46882 -6.01282,13.4816 -13.48164,13.4816 l -16.82111,0 c -7.46883,0 -13.48164,-6.01278 -13.48164,-13.4816 l 0,-8.90941" style="color:black;fill:none;stroke:#fffdee;stroke-width:7.91947556;stroke-linecap:round;stroke-opacity:1;marker:none;visibility:visible;display:inline;overflow:visible;enable-background:accumulate" />
         <path inkscape:connector-curvature="0" style="color:black;fill:#fffdee;fill-opacity:1;fill-rule:nonzero;stroke:none;stroke-width:8;marker:none;visibility:visible;display:inline;overflow:visible;enable-background:accumulate" d="m 147.70735,875.35477 c -4.25697,0 -7.67691,3.4399 -7.67691,7.69688 l 0,70.38855 c 0,4.25697 3.41994,7.67697 7.67691,7.67697 l 52.32283,0 c 4.25704,0 7.67697,-3.42 7.67697,-7.67697 l 0,-45.26403 0,-1.25619 c -0.10898,-0.13208 -0.15588,-0.2955 -0.27916,-0.41878 l -31.14644,-31.14643 -0.87736,0 -27.69684,0 z" id="path10603" />
         <path id="path7053" d="m 61.844375,875.35477 c -4.25697,0 -7.6769,3.4399 -7.6769,7.69688 l 0,70.38855 c 0,4.25697 3.41993,7.67697 7.6769,7.67697 l 52.322835,0 c 4.25704,0 7.67697,-3.42 7.67697,-7.67697 l 0,-45.26403 0,-1.25619 c -0.10898,-0.13208 -0.15588,-0.2955 -0.27916,-0.41878 l -31.146445,-31.14643 -0.87736,0 -27.69684,0 z" style="color:black;fill:#fffdee;fill-opacity:1;fill-rule:nonzero;stroke:none;stroke-width:8;marker:none;visibility:visible;display:inline;overflow:visible;enable-background:accumulate" inkscape:connector-curvature="0" />
         <g style="font-size:66.67037964px;font-style:normal;font-variant:normal;font-weight:normal;font-stretch:normal;text-align:start;line-height:125%;writing-mode:lr-tb;text-anchor:start;color:black;fill:#5aa58c;fill-opacity:1;fill-rule:nonzero;stroke:none;stroke-width:3;marker:none;visibility:visible;display:inline;overflow:visible;enable-background:accumulate;font-family:Federo;-inkscape-font-specification:Federo" id="text7064">
            <path d="m 169.57511,932.81109 0,16.50483 -10.58002,0 0,-44.43607 17.514,0 c 3.90644,4e-5 6.89055,0.42324 8.95232,1.2696 2.08342,0.82474 3.93899,2.31137 5.56672,4.45989 1.62765,2.14859 2.4415,4.78545 2.44154,7.91059 -4e-5,2.19199 -0.43409,4.3297 -1.30216,6.41312 -0.86814,2.08347 -2.09433,3.72202 -3.67859,4.91564 -1.58432,1.19366 -3.1252,1.9858 -4.62265,2.37643 -1.4758,0.39067 -3.79798,0.58599 -6.96653,0.58597 l -7.32463,0 m -0.35809,-8.07336 6.77121,0 c 2.58258,2e-5 4.39475,-0.5968 5.4365,-1.79047 1.0417,-1.19361 1.56256,-2.56088 1.56259,-4.10179 -3e-5,-1.80128 -0.586,-3.23365 -1.75791,-4.29711 -1.15027,-1.06339 -2.90818,-1.59511 -5.27374,-1.59514 l -6.73865,0 0,11.78451" style="fill:#5aa58c;marker:none;font-family:Franklin Gothic Demi;-inkscape-font-specification:Franklin Gothic Demi" id="path7133" />
         </g>
         <path id="path10605" d="m 207.70714,906.91998 c -0.25376,-0.56471 -0.61299,-1.10114 -1.08269,-1.56554 l -30.3429,-29.99967 0,26.40024 c 0,2.85664 2.32122,5.16497 5.21053,5.16497 l 26.21507,0 z" style="color:black;fill:#bedcd2;fill-opacity:1;fill-rule:nonzero;stroke:none;stroke-width:8;marker:none;visibility:visible;display:inline;overflow:visible;enable-background:accumulate" inkscape:connector-curvature="0" />
         <g style="font-size:66.67037964px;font-style:normal;font-variant:normal;font-weight:normal;font-stretch:normal;text-align:start;line-height:125%;writing-mode:lr-tb;text-anchor:start;color:black;fill:#5aa58c;fill-opacity:1;fill-rule:nonzero;stroke:none;stroke-width:3;marker:none;visibility:visible;display:inline;overflow:visible;enable-background:accumulate;font-family:Federo;-inkscape-font-specification:Federo" id="text7057">
            <path d="m 103.43294,925.55157 0,23.76435 -4.75287,0 c -0.347276,-1.6711 -0.846435,-3.37475 -1.497479,-5.11096 -3.168609,3.86306 -7.205288,5.79459 -12.11005,5.79459 -5.794608,0 -10.308744,-2.0726 -13.542421,-6.21779 -3.211988,-4.14519 -4.817979,-9.50573 -4.817976,-16.08163 -3e-6,-7.07502 1.714501,-12.76109 5.143515,-17.05824 3.450702,-4.29707 8.127608,-6.44563 14.03073,-6.44567 4.948165,4e-5 8.941439,1.38901 11.979834,4.1669 3.038327,2.77797 4.893897,6.47826 5.566717,11.10088 l -9.896386,1.30215 c -0.803024,-5.38221 -3.353077,-8.07333 -7.650165,-8.07337 -2.821357,4e-5 -4.95906,1.28049 -6.413118,3.84136 -1.432385,2.53924 -2.14857,6.17442 -2.148557,10.90556 -1.3e-5,4.55756 0.78128,8.04083 2.343881,10.4498 1.56257,2.409 3.787084,3.61349 6.673548,3.61348 1.8664,10e-6 3.526647,-0.60766 4.980746,-1.82302 1.475749,-1.21533 2.213636,-3.15771 2.213665,-5.82714 l -8.366351,0 0,-8.30125 18.262737,0" style="fill:#5aa58c;marker:none;font-family:Franklin Gothic Demi;-inkscape-font-specification:Franklin Gothic Demi" id="path7136" />
         </g>
         <path inkscape:connector-curvature="0" style="color:black;fill:#bedcd2;fill-opacity:1;fill-rule:nonzero;stroke:none;stroke-width:8;marker:none;visibility:visible;display:inline;overflow:visible;enable-background:accumulate" d="m 121.84418,906.91998 c -0.25376,-0.56471 -0.613,-1.10114 -1.0827,-1.56554 l -30.342905,-29.99967 0,26.40024 c 0,2.85664 2.32122,5.16497 5.21053,5.16497 l 26.215075,0 z" id="path7055" />
         <path transform="matrix(0.34550708,0,0,-0.24328844,91.936805,1023.0218)" d="m 190.61264,181.93227 -16.88277,29.24181 -16.88277,-29.24181 -16.88277,-29.24181 33.76554,-1e-5 33.76554,0 z" inkscape:randomized="0" inkscape:rounded="0" inkscape:flatsided="false" sodipodi:arg2="1.5707963" sodipodi:arg1="0.52359878" sodipodi:r2="38.989086" sodipodi:r1="19.494543" sodipodi:cy="172.185" sodipodi:cx="173.72987" sodipodi:sides="3" id="path7075" style="color:black;fill:#fffdee;fill-opacity:1;stroke:#fffdee;stroke-width:16;stroke-linecap:round;stroke-linejoin:round;stroke-miterlimit:4;stroke-opacity:1;stroke-dasharray:none;stroke-dashoffset:0;marker:none;visibility:visible;display:inline;overflow:visible;enable-background:accumulate" sodipodi:type="star" />
         <path style="color:black;fill:none;stroke:#fffdee;stroke-width:7.91947556;stroke-linecap:round;stroke-opacity:1;marker:none;visibility:visible;display:inline;overflow:visible;enable-background:accumulate" d="m 107.59663,862.84189 0,-8.90941 c 0,-7.46882 6.01282,-13.48163 13.48164,-13.48163 l 16.82111,0 c 7.46883,0 13.48164,6.01281 13.48164,13.48163 l 0,8.90941" id="path7109" inkscape:connector-curvature="0" sodipodi:nodetypes="cssssc" />
         <path sodipodi:type="star" style="color:black;fill:#fffdee;fill-opacity:1;stroke:#fffdee;stroke-width:16;stroke-linecap:round;stroke-linejoin:round;stroke-miterlimit:4;stroke-opacity:1;stroke-dasharray:none;stroke-dashoffset:0;marker:none;visibility:visible;display:inline;overflow:visible;enable-background:accumulate" id="path7111" sodipodi:sides="3" sodipodi:cx="173.72987" sodipodi:cy="172.185" sodipodi:r1="19.494543" sodipodi:r2="38.989086" sodipodi:arg1="0.52359878" sodipodi:arg2="1.5707963" inkscape:flatsided="false" inkscape:rounded="0" inkscape:randomized="0" d="m 190.61264,181.93227 -16.88277,29.24181 -16.88277,-29.24181 -16.88277,-29.24181 33.76554,-1e-5 33.76554,0 z" transform="matrix(-0.34550708,0,0,0.24328844,167.62154,818.00528)" />
      </g>
   </g>
</svg>
