<?xml version="1.0" encoding="UTF-8" standalone="no"?>
<!-- Created with Inkscape (http://www.inkscape.org/) -->

<svg
   xmlns:dc="http://purl.org/dc/elements/1.1/"
   xmlns:cc="http://creativecommons.org/ns#"
   xmlns:rdf="http://www.w3.org/1999/02/22-rdf-syntax-ns#"
   xmlns:svg="http://www.w3.org/2000/svg"
   xmlns="http://www.w3.org/2000/svg"
   xmlns:xlink="http://www.w3.org/1999/xlink"
   xmlns:sodipodi="http://sodipodi.sourceforge.net/DTD/sodipodi-0.dtd"
   xmlns:inkscape="http://www.inkscape.org/namespaces/inkscape"
   width="256"
   height="256"
   id="svg10914"
   version="1.1"
   inkscape:version="0.91+devel+osxmenu r12898"
   sodipodi:docname="keepass2.svg">
  <defs
     id="defs10916">
    <radialGradient
       inkscape:collect="always"
       xlink:href="#linearGradient9879-4"
       id="radialGradient220922"
       gradientUnits="userSpaceOnUse"
       gradientTransform="matrix(1,0,0,1.1280507,0,-15.592641)"
       cx="-170.8718"
       cy="127.7508"
       fx="-170.8718"
       fy="127.7508"
       r="12.49998" />
    <linearGradient
       inkscape:collect="always"
       id="linearGradient9879-4">
      <stop
         style="stop-color:#ffffff;stop-opacity:1"
         offset="0"
         id="stop9881-6" />
      <stop
         style="stop-color:#e4e4e1;stop-opacity:1"
         offset="1"
         id="stop9883-2" />
    </linearGradient>
    <clipPath
       id="clipPath20"
       clipPathUnits="userSpaceOnUse">
      <path
         id="path22"
         d="M 0,2834.65 0,0 l 2834.65,0 0,2834.65 -2834.65,0 z" />
    </clipPath>
    <clipPath
       id="clipPath20-8"
       clipPathUnits="userSpaceOnUse">
      <path
         id="path22-2"
         d="M 0,2834.65 0,0 l 2834.65,0 0,2834.65 -2834.65,0 z" />
    </clipPath>
    <linearGradient
       id="linearGradient3904">
      <stop
         offset="0"
         style="stop-color:#ffffff;stop-opacity:1"
         id="stop3906" />
      <stop
         offset="1"
         style="stop-color:#b8caff;stop-opacity:1"
         id="stop3908" />
    </linearGradient>
    <linearGradient
       id="linearGradient3870">
      <stop
         offset="0"
         style="stop-color:#ffffff;stop-opacity:1"
         id="stop3872" />
      <stop
         offset="1"
         style="stop-color:#2a53c6;stop-opacity:1"
         id="stop3874" />
    </linearGradient>
    <linearGradient
       gradientUnits="userSpaceOnUse"
       xlink:href="#linearGradient3870"
       id="linearGradient3876"
       y2="710.21936"
       x2="500.71429"
       y1="580.93359"
       x1="371.42859"
       gradientTransform="matrix(1.5701657,0,0,1.5701657,-844.30852,125.5733)" />
    <linearGradient
       gradientUnits="userSpaceOnUse"
       xlink:href="#linearGradient3904"
       id="linearGradient3910"
       y2="795.2287"
       x2="548.58081"
       y1="526.63849"
       x1="279.99066"
       gradientTransform="matrix(0.95312501,0,0,0.95312502,-554.47021,509.283)" />
  </defs>
  <sodipodi:namedview
     id="base"
     pagecolor="#ffffff"
     bordercolor="#666666"
     borderopacity="1.0"
     inkscape:pageopacity="0.0"
     inkscape:pageshadow="2"
     inkscape:zoom="0.98994949"
     inkscape:cx="67.640734"
     inkscape:cy="89.374413"
     inkscape:document-units="px"
     inkscape:current-layer="layer1"
     showgrid="false"
     inkscape:showpageshadow="false"
     inkscape:snap-page="true"
     inkscape:snap-bbox="true"
     inkscape:window-width="1280"
     inkscape:window-height="751"
     inkscape:window-x="0"
     inkscape:window-y="23"
     inkscape:window-maximized="0"
     inkscape:object-nodes="true"
     inkscape:bbox-nodes="true"
     inkscape:bbox-paths="true"
     inkscape:snap-midpoints="true"
     inkscape:snap-object-midpoints="true"
     inkscape:snap-center="true" />
  <metadata
     id="metadata10919">
    <rdf:RDF>
      <cc:Work
         rdf:about="">
        <dc:format>image/svg+xml</dc:format>
        <dc:type
           rdf:resource="http://purl.org/dc/dcmitype/StillImage" />
        <dc:title></dc:title>
      </cc:Work>
    </rdf:RDF>
  </metadata>
  <g
     inkscape:label="Layer 1"
     inkscape:groupmode="layer"
     id="layer1"
     transform="translate(0,-796.36218)">
    <path
       style="color:#000000;display:inline;overflow:visible;visibility:visible;fill:#97abe3;fill-opacity:1;fill-rule:nonzero;stroke:none;stroke-width:3.99999976;marker:none;enable-background:accumulate"
       d="M 188.60672,1030.3949 C 95.682654,1099.3425 -17.761846,989.00984 1.9308543,900.13008 13.477674,812.60103 147.80429,759.76029 216.00216,827.46246 c 49.1023,49.50592 65.5286,133.98475 -27.39544,202.93244 z"
       id="path32622-5"
       inkscape:connector-curvature="0"
       sodipodi:nodetypes="zccz" />
    <g
       id="g3853"
       transform="matrix(0.85417543,0,0,0.85417543,-226.21067,356.19147)"
       style="fill:#ffffff;fill-opacity:1;stroke-width:1.17071974">
      <rect
         style="fill:#ffffff;fill-opacity:1;stroke:none;stroke-width:1.17071974"
         id="rect3801"
         y="709.14789"
         x="351.78574"
         height="16"
         width="125" />
      <path
         style="fill:#ffffff;fill-opacity:1;stroke:none;stroke-width:1.17071974"
         id="rect3803"
         d="m 351.78125,689.15625 0,16 53,0 0,-16 -53,0 z m 72,0 0,16 53,0 0,-16 -53,0 z"
         inkscape:connector-curvature="0" />
      <path
         style="fill:#ffffff;fill-opacity:1;stroke:none;stroke-width:1.17071974"
         id="rect3807"
         d="m 351.78125,669.15625 0,16 53,0 0,-16 -53,0 z m 72,0 0,16 53,0 0,-16 -53,0 z"
         inkscape:connector-curvature="0" />
      <rect
         style="fill:#ffffff;fill-opacity:1;stroke:none;stroke-width:1.17071974"
         id="rect3809"
         y="649.14789"
         x="351.78574"
         height="16"
         width="125" />
      <path
         style="color:#000000;font-style:normal;font-variant:normal;font-weight:normal;font-stretch:normal;font-size:medium;line-height:normal;font-family:Sans;-inkscape-font-specification:Sans;text-indent:0;text-align:start;text-decoration:none;text-decoration-line:none;letter-spacing:normal;word-spacing:normal;text-transform:none;direction:ltr;block-progression:tb;writing-mode:lr-tb;baseline-shift:baseline;text-anchor:start;display:inline;overflow:visible;visibility:visible;fill:#ffffff;fill-opacity:1;stroke:none;stroke-width:22.24367332;marker:none;enable-background:accumulate"
         id="path3832"
         d="m 414.28125,572.75 c -11.70527,0 -21.61153,5.4901 -28.6875,12.6875 -7.07597,7.1974 -11.87157,16.05803 -15.4375,24.625 -7.13185,17.13393 -9.28125,33.84375 -9.28125,33.84375 l -0.15625,1.25 19.15625,0 c 0.46666,-2.98621 2.59068,-15.26733 7.8125,-27.8125 2.97796,-7.1544 6.95263,-14.00013 11.46875,-18.59375 4.51612,-4.59362 9.00579,-7 15.125,-7 6.11921,0 10.64013,2.40638 15.15625,7 4.51612,4.59362 8.45954,11.43935 11.4375,18.59375 5.22182,12.54517 7.34584,24.82629 7.8125,27.8125 l 19.15625,0 -0.15625,-1.25 c 0,0 -2.11815,-16.70982 -9.25,-33.84375 -3.56593,-8.56697 -8.39278,-17.4276 -15.46875,-24.625 -7.07597,-7.1974 -16.98223,-12.6875 -28.6875,-12.6875 z"
         inkscape:connector-curvature="0" />
    </g>
  </g>
</svg>
