<?xml version="1.0" encoding="UTF-8" standalone="no"?>
<!-- Created with Inkscape (http://www.inkscape.org/) -->

<svg xmlns:dc="http://purl.org/dc/elements/1.1/" xmlns:cc="http://creativecommons.org/ns#" xmlns:rdf="http://www.w3.org/1999/02/22-rdf-syntax-ns#" xmlns:svg="http://www.w3.org/2000/svg" xmlns="http://www.w3.org/2000/svg" xmlns:sodipodi="http://sodipodi.sourceforge.net/DTD/sodipodi-0.dtd" xmlns:inkscape="http://www.inkscape.org/namespaces/inkscape" width="256" height="256" id="svg10914" version="1.1" inkscape:version="0.48.4 r9939" sodipodi:docname="calculator.svg">
   <defs id="defs10916">
      <inkscape:path-effect effect="spiro" id="path-effect8785" is_visible="true" />
   </defs>
   <sodipodi:namedview id="base" pagecolor="#ffffff" bordercolor="#666666" borderopacity="1.0" inkscape:pageopacity="0.0" inkscape:pageshadow="2" inkscape:zoom="0.35" inkscape:cx="633.57143" inkscape:cy="167.14286" inkscape:document-units="px" inkscape:current-layer="layer1" showgrid="false" inkscape:showpageshadow="false" inkscape:snap-page="true" inkscape:snap-bbox="true" inkscape:window-width="1366" inkscape:window-height="741" inkscape:window-x="0" inkscape:window-y="27" inkscape:window-maximized="1" />
   <metadata id="metadata10919">
      <rdf:RDF>
         <cc:Work rdf:about="">
            <dc:format>image/svg+xml</dc:format>
            <dc:type rdf:resource="http://purl.org/dc/dcmitype/StillImage" />
            <dc:title></dc:title>
         </cc:Work>
      </rdf:RDF>
   </metadata>
   <g inkscape:label="Layer 1" inkscape:groupmode="layer" id="layer1" transform="translate(0,-796.36218)">
      <g id="g13102" transform="translate(3.5275056e-6,1.8815274e-6)">
         <path inkscape:connector-curvature="0" id="path6974-8-6" d="M 227.98898,995.3616 C 371.84601,787.37224 -90.554816,695.71392 16.149325,954.06409 50.235908,1039.0619 181.43205,1103.8051 227.98898,995.3616 z" style="color:black;fill:#00abff;fill-opacity:1;fill-rule:nonzero;stroke:none;stroke-width:4;marker:none;visibility:visible;display:inline;overflow:visible;enable-background:accumulate" />
         <path inkscape:connector-curvature="0" id="path13100" d="m 126.42925,871.94409 c -3.24271,0 -6.29973,0.18056 -9.20009,0.53854 -2.90036,0.35798 -5.62788,0.91253 -8.16789,1.61563 -2.54001,0.70309 -4.92915,1.56761 -7.0908,2.60295 -2.161652,1.03534 -4.113773,2.23556 -5.879085,3.59028 -1.765312,1.35473 -3.316385,2.87149 -4.667364,4.53273 -1.35098,1.66124 -2.492129,3.4754 -3.410767,5.4303 -0.918643,1.95489 -1.64097,4.04732 -2.109289,6.28299 -0.468319,2.23567 -0.673178,4.58721 -0.673178,7.0908 0,2.72342 0.44456,5.20436 1.256598,7.44983 0.812038,2.24548 1.985167,4.28596 3.455645,6.10348 1.470478,1.81751 3.230592,3.40736 5.205906,4.84688 1.975315,1.43951 4.13596,2.70318 6.462504,3.81467 2.32655,1.11149 4.79103,2.08366 7.3152,2.9171 2.52416,0.83345 5.10602,1.54881 7.67422,2.15417 5.1364,1.21072 10.23949,2.00476 14.63039,2.60295 4.10995,1.10035 7.2011,2.08297 9.55912,3.05174 2.35803,0.96878 3.98221,1.92149 5.07127,2.96198 1.08907,1.0405 1.67161,2.18505 1.97466,3.50053 0.30305,1.31548 0.31415,2.82875 0.31415,4.62248 0,1.11779 -0.16926,2.14686 -0.49367,3.09662 -0.3244,0.94976 -0.80083,1.81312 -1.39123,2.60295 -0.5904,0.78984 -1.31127,1.47131 -2.10929,2.10929 -0.79802,0.63798 -1.65569,1.21116 -2.60295,1.70539 -1.89452,0.98844 -4.05212,1.69228 -6.19324,2.15416 -2.14111,0.46189 -4.27263,0.67318 -6.19323,0.67318 -2.89938,0 -5.43383,-0.25772 -7.62934,-0.71806 -2.19552,-0.46033 -4.0552,-1.09575 -5.69957,-1.88489 -1.64438,-0.78915 -3.06237,-1.70629 -4.30834,-2.69271 -1.24597,-0.98642 -2.32071,-2.04444 -3.32101,-3.09662 -2.00059,-2.10436 -3.6755,-4.21105 -5.60981,-5.78933 -0.96717,-0.78914 -2.00668,-1.46944 -3.186376,-1.92977 -1.179694,-0.46033 -2.49411,-0.71806 -4.039065,-0.71806 -1.591887,0 -2.984729,0.13082 -4.173701,0.44879 -1.188972,0.31797 -2.172622,0.81298 -2.961981,1.57075 -0.789362,0.75776 -1.402104,1.77724 -1.79514,3.09661 -0.393037,1.31937 -0.583421,2.97873 -0.583421,4.98152 0,1.00143 0.260738,2.08535 0.762935,3.27613 0.502197,1.19078 1.267211,2.47952 2.243925,3.76979 0.976714,1.29028 2.166705,2.60455 3.59028,3.90443 1.423575,1.29988 3.093888,2.59503 4.936635,3.81467 1.842748,1.21965 3.869229,2.36124 6.103479,3.41077 2.23424,1.04952 4.67223,1.99292 7.27032,2.78247 2.59808,0.78954 5.36828,1.40031 8.30252,1.84001 2.93423,0.43971 6.00224,0.71806 9.24497,0.71806 3.24271,0 6.35561,-0.18082 9.28985,-0.49366 2.93423,-0.31285 5.70445,-0.76551 8.30252,-1.39124 2.59807,-0.62572 5.03607,-1.39505 7.27032,-2.33368 2.23425,-0.93863 4.26073,-2.06944 6.10348,-3.32101 1.84274,-1.25157 3.46818,-2.65405 4.89175,-4.21858 1.42358,-1.56453 2.65845,-3.28351 3.63516,-5.16102 0.97672,-1.87752 1.69685,-3.91294 2.19905,-6.10348 0.50219,-2.19055 0.76293,-4.54234 0.76293,-7.04593 0,-2.57737 -0.25354,-4.89382 -0.76293,-7.04592 -0.50939,-2.1521 -1.27004,-4.14073 -2.24393,-5.92396 -0.97388,-1.78324 -2.15191,-3.37612 -3.5454,-4.84688 -1.39349,-1.47077 -2.98892,-2.82436 -4.75712,-4.03907 -1.7682,-1.2147 -3.73617,-2.30596 -5.83421,-3.32101 -2.09803,-1.01504 -4.3488,-1.95556 -6.73177,-2.82734 -4.76593,-1.74356 -10.02627,-3.2482 -15.6626,-4.75712 -3.74908,-0.90943 -7.11355,-1.7319 -10.0079,-2.60296 -2.89436,-0.87106 -5.33061,-1.7768 -7.3152,-2.78246 -1.98459,-1.00567 -3.51292,-2.14242 -4.53273,-3.45565 -0.5099,-0.6566 -0.86358,-1.34335 -1.12196,-2.10929 -0.25839,-0.76593 -0.40391,-1.57145 -0.40391,-2.46831 0,-1.11783 0.1292,-2.14682 0.40391,-3.09662 0.27471,-0.9498 0.70649,-1.85797 1.21172,-2.64783 1.01045,-1.57971 2.41657,-2.82621 4.08394,-3.81468 1.66737,-0.98846 3.59419,-1.69227 5.56494,-2.15416 1.97074,-0.4619 4.00336,-0.67318 5.92396,-0.67318 2.89938,0 5.34466,0.22211 7.44983,0.6283 2.10517,0.40619 3.85104,0.96419 5.34054,1.6605 1.48951,0.69632 2.71741,1.50816 3.7698,2.37856 1.05238,0.8704 1.94379,1.80917 2.73758,2.73759 1.58761,1.85684 2.81839,3.72352 4.44298,5.11615 0.81229,0.69631 1.73799,1.29919 2.82734,1.70538 1.08935,0.40619 2.35948,0.6283 3.90443,0.6283 1.59187,0 3.00479,-0.11066 4.26346,-0.35903 1.25867,-0.24836 2.34898,-0.63651 3.23125,-1.30147 0.88228,-0.66496 1.5568,-1.57756 2.01953,-2.82735 0.46273,-1.24979 0.71806,-2.84402 0.71806,-4.84688 0,-1.00143 -0.21193,-2.09011 -0.6283,-3.23125 -0.41637,-1.14113 -1.0553,-2.34026 -1.8849,-3.5454 -0.82959,-1.20514 -1.85695,-2.44168 -3.09661,-3.63516 -1.23967,-1.19348 -2.66176,-2.3495 -4.30834,-3.45564 -1.64657,-1.10615 -3.5146,-2.15349 -5.56493,-3.09662 -2.05034,-0.94313 -4.28082,-1.76389 -6.73178,-2.46832 -2.45095,-0.70443 -5.09508,-1.27045 -7.94349,-1.6605 -2.84842,-0.39006 -5.91251,-0.6283 -9.15522,-0.6283 z" style="color:black;fill:#ececec;fill-opacity:1;fill-rule:nonzero;stroke:none;stroke-width:10;marker:none;visibility:visible;display:inline;overflow:visible;enable-background:accumulate" />
      </g>
   </g>
</svg>
