<?xml version="1.0" encoding="UTF-8" standalone="no"?>
<!-- Created with Inkscape (http://www.inkscape.org/) -->

<svg xmlns:dc="http://purl.org/dc/elements/1.1/" xmlns:cc="http://creativecommons.org/ns#" xmlns:rdf="http://www.w3.org/1999/02/22-rdf-syntax-ns#" xmlns:svg="http://www.w3.org/2000/svg" xmlns="http://www.w3.org/2000/svg" xmlns:xlink="http://www.w3.org/1999/xlink" xmlns:sodipodi="http://sodipodi.sourceforge.net/DTD/sodipodi-0.dtd" xmlns:inkscape="http://www.inkscape.org/namespaces/inkscape" width="256" height="256" id="svg10914" version="1.1" inkscape:version="0.48.4 r9939" sodipodi:docname="deepin-media-player.svg">
   <defs id="defs10916">
      <radialGradient inkscape:collect="always" xlink:href="#linearGradient9879-4" id="radialGradient220922" gradientUnits="userSpaceOnUse" gradientTransform="matrix(1,0,0,1.1280507,0,-15.592641)" cx="-170.8718" cy="127.7508" fx="-170.8718" fy="127.7508" r="12.49998" />
      <linearGradient inkscape:collect="always" id="linearGradient9879-4">
         <stop style="stop-color:#ffffff;stop-opacity:1" offset="0" id="stop9881-6" />
         <stop style="stop-color:#e4e4e1;stop-opacity:1" offset="1" id="stop9883-2" />
      </linearGradient>
   </defs>
   <sodipodi:namedview id="base" pagecolor="#ffffff" bordercolor="#666666" borderopacity="1.0" inkscape:pageopacity="0.0" inkscape:pageshadow="2" inkscape:zoom="0.24748737" inkscape:cx="-531.41314" inkscape:cy="624.07458" inkscape:document-units="px" inkscape:current-layer="layer1" showgrid="false" inkscape:showpageshadow="false" inkscape:snap-page="true" inkscape:snap-bbox="true" inkscape:window-width="1366" inkscape:window-height="741" inkscape:window-x="0" inkscape:window-y="27" inkscape:window-maximized="1" inkscape:object-nodes="true" inkscape:bbox-nodes="true" inkscape:bbox-paths="true" inkscape:snap-midpoints="true" inkscape:snap-object-midpoints="true" />
   <metadata id="metadata10919">
      <rdf:RDF>
         <cc:Work rdf:about="">
            <dc:format>image/svg+xml</dc:format>
            <dc:type rdf:resource="http://purl.org/dc/dcmitype/StillImage" />
            <dc:title></dc:title>
         </cc:Work>
      </rdf:RDF>
   </metadata>
   <g inkscape:label="Layer 1" inkscape:groupmode="layer" id="layer1" transform="translate(0,-796.36218)">
      <path style="color:black;fill:#0e62b5;fill-opacity:1;fill-rule:nonzero;stroke:none;stroke-width:4;marker:none;visibility:visible;display:inline;overflow:visible;enable-background:accumulate" d="m 26.373379,856.5285 c -92.0504,130.93304 77.947871,263.5967 186.386821,156.9145 102.16932,-100.51412 7.44901,-256.67813 -119.688461,-207.86263 -26.52578,10.1848 -49.80186,26.9143 -66.69836,50.94813 z" id="path32622-5" inkscape:connector-curvature="0" sodipodi:nodetypes="ssss" />
      <path style="fill:white;fill-opacity:1" d="m 132.125,62.90625 c -1.22884,-0.0012 -2.45603,0.02165 -3.6875,0.09375 -30.479868,0.63468 -58.218997,25.86515 -61.28125,56.28125 -2.078647,17.19162 2.106306,34.83336 13.25,48.1875 15.440685,20.18669 43.9608,30.6073 68.5,22.59375 l -10.9375,-18.90625 c -18.02867,2.52533 -37.28439,-6.2264 -45.40625,-22.84375 -11.469122,-20.09194 -2.860725,-47.71815 17.09375,-58.75 17.51556,-10.751 42.10396,-6.73787 55,9.3125 4.27833,4.62683 6.99033,10.60065 9.5625,16.15625 l 21.125,0 c -1.37093,-11.13544 -7.67551,-21.344925 -14.46875,-30.125 -12.34883,-13.818141 -30.31747,-21.982428 -48.75,-22 z m -21.6875,48.53125 c -0.48997,13.81163 0,27.57182 0,41.8125 l 15,0 c 0.18588,-12.12502 0.37309,-24.25003 0.5625,-36.375 6.4747,-0.55745 16.18044,-0.42564 18.03125,7.4375 1.95801,6.78416 -3.63602,12.69586 -9.59375,14.90625 l 3.875,14.375 c 16.90388,-1.32359 27.67685,-22.74386 19.71875,-37.6875 -4.91385,-9.50194 -14.87886,-14.5625 -25.65625,-14.5625 -11.60992,-0.004 -21.9375,2.2604 -21.9375,10.09375 z" transform="translate(0,796.36218)" id="path6600" inkscape:connector-curvature="0" sodipodi:nodetypes="scccccccccccscccccccccc" />
      <path sodipodi:type="arc" style="color:black;fill:white;fill-opacity:1;fill-rule:nonzero;stroke:none;stroke-width:2;marker:none;visibility:visible;display:inline;overflow:visible;enable-background:accumulate" id="path7404" sodipodi:cx="181.57492" sodipodi:cy="132.00377" sodipodi:rx="11.869292" sodipodi:ry="11.869292" d="m 193.44421,132.00377 a 11.869292,11.869292 0 1 1 -23.73858,0 11.869292,11.869292 0 1 1 23.73858,0 z" transform="matrix(0.80851064,0,0,0.80851064,38.942046,821.89203)" />
      <path transform="matrix(0.80851064,0,0,0.80851064,29.57783,845.59001)" d="m 193.44421,132.00377 a 11.869292,11.869292 0 1 1 -23.73858,0 11.869292,11.869292 0 1 1 23.73858,0 z" sodipodi:ry="11.869292" sodipodi:rx="11.869292" sodipodi:cy="132.00377" sodipodi:cx="181.57492" id="path7406" style="color:black;fill:white;fill-opacity:1;fill-rule:nonzero;stroke:none;stroke-width:2;marker:none;visibility:visible;display:inline;overflow:visible;enable-background:accumulate" sodipodi:type="arc" />
      <path sodipodi:type="arc" style="color:black;fill:white;fill-opacity:1;fill-rule:nonzero;stroke:none;stroke-width:2;marker:none;visibility:visible;display:inline;overflow:visible;enable-background:accumulate" id="path7408" sodipodi:cx="181.57492" sodipodi:cy="132.00377" sodipodi:rx="11.869292" sodipodi:ry="11.869292" d="m 193.44421,132.00377 a 11.869292,11.869292 0 1 1 -23.73858,0 11.869292,11.869292 0 1 1 23.73858,0 z" transform="matrix(0.80851064,0,0,0.80851064,12.890008,863.03545)" />
   </g>
</svg>
