<?xml version="1.0" encoding="UTF-8" standalone="no"?>
<!-- Created with Inkscape (http://www.inkscape.org/) -->

<svg xmlns:dc="http://purl.org/dc/elements/1.1/" xmlns:cc="http://creativecommons.org/ns#" xmlns:rdf="http://www.w3.org/1999/02/22-rdf-syntax-ns#" xmlns:svg="http://www.w3.org/2000/svg" xmlns="http://www.w3.org/2000/svg" xmlns:sodipodi="http://sodipodi.sourceforge.net/DTD/sodipodi-0.dtd" xmlns:inkscape="http://www.inkscape.org/namespaces/inkscape" width="256" height="256" id="svg10914" version="1.1" inkscape:version="0.48.4 r9939" sodipodi:docname="search-alt.svg">
   <defs id="defs10916" />
   <sodipodi:namedview id="base" pagecolor="#ffffff" bordercolor="#666666" borderopacity="1.0" inkscape:pageopacity="0.0" inkscape:pageshadow="2" inkscape:zoom="0.7" inkscape:cx="62.443757" inkscape:cy="136.58146" inkscape:document-units="px" inkscape:current-layer="layer1" showgrid="false" inkscape:showpageshadow="false" inkscape:snap-page="true" inkscape:snap-bbox="true" inkscape:window-width="1366" inkscape:window-height="741" inkscape:window-x="0" inkscape:window-y="27" inkscape:window-maximized="1" inkscape:object-nodes="true" inkscape:snap-object-midpoints="true" />
   <metadata id="metadata10919">
      <rdf:RDF>
         <cc:Work rdf:about="">
            <dc:format>image/svg+xml</dc:format>
            <dc:type rdf:resource="http://purl.org/dc/dcmitype/StillImage" />
            <dc:title></dc:title>
         </cc:Work>
      </rdf:RDF>
   </metadata>
   <g inkscape:label="Layer 1" inkscape:groupmode="layer" id="layer1" transform="translate(0,-796.36218)">
      <path style="color:black;fill:#393068;fill-opacity:1;fill-rule:nonzero;stroke:none;stroke-width:4;marker:none;visibility:visible;display:inline;overflow:visible;enable-background:accumulate" d="M 202.57969,811.44443 C -178.75877,700.23401 64.330641,1249.6981 234.93871,974.07851 266.12798,923.43556 268.29637,837.47101 202.57969,811.44443 z" id="path32622-5" inkscape:connector-curvature="0" sodipodi:nodetypes="ccc" />
      <g id="g7021" transform="translate(-4.3299787,-1.8534908)">
         <path inkscape:connector-curvature="0" id="path6246" d="m 79.284301,848.27302 c -2.08486,0 -4.04489,0.5142 -5.75,1.4375 -1.02984,0.55765 -1.93096,1.27158 -2.75,2.09375 -0.53704,0.5391 -1.04172,1.11655 -1.46875,1.75 -0.0047,0.007 0.0047,0.0243 0,0.0312 -0.21,0.31301 -0.41336,0.63561 -0.59375,0.96875 -0.0043,0.008 0.0043,0.0234 0,0.0312 -0.36348,0.67496 -0.67555,1.37922 -0.90625,2.125 -0.0029,0.009 0.0029,0.0218 0,0.0312 -0.1129,0.36823 -0.23472,0.74237 -0.3125,1.125 -0.002,0.01 0.002,0.0214 0,0.0312 -0.07679,0.3828 -0.14767,0.76094 -0.1875,1.15625 -0.0011,0.0104 0.001,0.0208 0,0.0312 -0.03889,0.39591 -0.0625,0.81218 -0.0625,1.21875 -3e-5,0.0104 0,0.0208 0,0.0312 l 0,70.90624 0,1.9688 0,37.4375 c 0,6.6714 5.3597,12.0312 12.03125,12.0312 l 37.218719,0 44.78125,0 c 0.83394,0 1.65246,-0.09 2.4375,-0.25 1.17756,-0.2394 2.28944,-0.6648 3.3125,-1.2187 1.35731,-0.7383 2.58641,-1.723 3.5625,-2.9063 0.005,-0.01 -0.005,-0.025 0,-0.031 0.48372,-0.5886 0.91474,-1.2001 1.28125,-1.875 0.004,-0.01 -0.004,-0.023 0,-0.031 0.18021,-0.3336 0.35118,-0.6795 0.5,-1.0312 0.004,-0.01 -0.004,-0.022 0,-0.031 0.14787,-0.3519 0.29158,-0.6945 0.40625,-1.0625 0.003,-0.01 -0.003,-0.022 0,-0.031 0.11375,-0.3683 0.20255,-0.7425 0.28125,-1.125 0.002,-0.01 -0.002,-0.021 0,-0.031 0.0778,-0.3831 0.14667,-0.792 0.1875,-1.1875 0.001,-0.01 -0.001,-0.021 0,-0.031 0.0398,-0.3956 0.0615,-0.7815 0.0625,-1.1875 l 0,-0.031 0,-70.90629 0,-1.96875 0,-37.4375 c 0,-6.6715 -5.3597,-12.03125 -12.03125,-12.03125 l -37.21875,0 -44.781219,0 z" style="color:black;fill:#fffdee;fill-opacity:1;fill-rule:nonzero;stroke:none;stroke-width:8;marker:none;visibility:visible;display:inline;overflow:visible;enable-background:accumulate" />
         <path inkscape:connector-curvature="0" style="color:black;fill:#fffdee;fill-opacity:1;fill-rule:nonzero;stroke:#393068;stroke-width:8;stroke-opacity:1;marker:none;visibility:visible;display:inline;overflow:visible;enable-background:accumulate" d="m 91.329979,859.01251 c -6.67155,0 -12.03125,5.391 -12.03125,12.0625 l 0,110.31254 c 0,6.6715 5.3597,12.0313 12.03125,12.0313 l 82.000001,0 c 6.67155,0 12.03125,-5.3598 12.03125,-12.0313 l 0,-70.93754 0,-1.9687 c -0.1707,-0.207 -0.2443,-0.4631 -0.4375,-0.6563 l -48.8125,-48.8125 -1.375,0 -43.406251,0 z" id="path37995" />
         <path id="path37989" d="m 181.59856,910.07574 c -0.37933,-0.84434 -0.91656,-1.64641 -1.61884,-2.34077 l -45.36837,-44.85519 0,39.47336 c 0,4.27121 3.47064,7.7226 7.79074,7.7226 l 39.19647,0 z" style="color:black;fill:#c0bbdf;fill-opacity:1;fill-rule:nonzero;stroke:none;stroke-width:8;marker:none;visibility:visible;display:inline;overflow:visible;enable-background:accumulate" inkscape:connector-curvature="0" />
      </g>
   </g>
</svg>
