<?xml version="1.0" encoding="UTF-8" standalone="no"?>
<!-- Created with Inkscape (http://www.inkscape.org/) -->

<svg xmlns:dc="http://purl.org/dc/elements/1.1/" xmlns:cc="http://creativecommons.org/ns#" xmlns:rdf="http://www.w3.org/1999/02/22-rdf-syntax-ns#" xmlns:svg="http://www.w3.org/2000/svg" xmlns="http://www.w3.org/2000/svg" xmlns:sodipodi="http://sodipodi.sourceforge.net/DTD/sodipodi-0.dtd" xmlns:inkscape="http://www.inkscape.org/namespaces/inkscape" width="256" height="256" id="svg10914" version="1.1" inkscape:version="0.48.5 r10040" sodipodi:docname="webcam.svg">
   <defs id="defs10916" />
   <sodipodi:namedview id="base" pagecolor="#ffffff" bordercolor="#666666" borderopacity="1.0" inkscape:pageopacity="0.0" inkscape:pageshadow="2" inkscape:zoom="0.98994949" inkscape:cx="50.082085" inkscape:cy="184.22739" inkscape:document-units="px" inkscape:current-layer="layer1" showgrid="false" inkscape:showpageshadow="false" inkscape:snap-page="true" inkscape:snap-bbox="true" inkscape:window-width="1366" inkscape:window-height="702" inkscape:window-x="0" inkscape:window-y="27" inkscape:window-maximized="1" inkscape:snap-object-midpoints="true" showguides="true" inkscape:guide-bbox="true" />
   <metadata id="metadata10919">
      <rdf:RDF>
         <cc:Work rdf:about="">
            <dc:format>image/svg+xml</dc:format>
            <dc:type rdf:resource="http://purl.org/dc/dcmitype/StillImage" />
            <dc:title></dc:title>
         </cc:Work>
      </rdf:RDF>
   </metadata>
   <g inkscape:label="Layer 1" inkscape:groupmode="layer" id="layer1" transform="translate(0,-796.36218)">
      <path sodipodi:nodetypes="szzs" inkscape:connector-curvature="0" id="path32551" d="m 49.166091,1029.4305 c 88.634289,59.3819 181.334549,-6.4073 203.799869,-85.22693 22.46532,-78.8196 -83.99948,-188.82588 -181.519719,-132.30012 -97.52025,56.52576 -85.41465,175.22914 -22.28015,217.52705 z" style="color:black;fill:#21c89a;fill-opacity:1;fill-rule:nonzero;stroke:none;stroke-width:4;marker:none;visibility:visible;display:inline;overflow:visible;enable-background:accumulate" />
      <path style="fill:none;stroke:#a9f1dd;stroke-width:10;stroke-linecap:butt;stroke-linejoin:miter;stroke-miterlimit:4;stroke-opacity:1;stroke-dasharray:none" d="m 36.42857,894.50504 54.285714,45 20.000006,-67.14286 69.99999,69.28571 37.14286,-45.71429" id="path6929" inkscape:connector-curvature="0" sodipodi:nodetypes="ccccc" />
      <path sodipodi:type="arc" style="color:black;fill:white;fill-opacity:1;fill-rule:evenodd;stroke:none;stroke-width:22;marker:none;visibility:visible;display:inline;overflow:visible;enable-background:accumulate" id="path6919" sodipodi:cx="63.57143" sodipodi:cy="117.42857" sodipodi:rx="7.8571429" sodipodi:ry="7.8571429" d="m 71.428573,117.42857 a 7.8571429,7.8571429 0 1 1 -15.714286,0 7.8571429,7.8571429 0 1 1 15.714286,0 z" transform="matrix(1.5454545,0,0,1.5454545,-61.818183,713.02452)" />
      <path transform="matrix(1.5454545,0,0,1.5454545,-7.5324684,758.02452)" d="m 71.428573,117.42857 a 7.8571429,7.8571429 0 1 1 -15.714286,0 7.8571429,7.8571429 0 1 1 15.714286,0 z" sodipodi:ry="7.8571429" sodipodi:rx="7.8571429" sodipodi:cy="117.42857" sodipodi:cx="63.57143" id="path6921" style="color:black;fill:white;fill-opacity:1;fill-rule:evenodd;stroke:none;stroke-width:22;marker:none;visibility:visible;display:inline;overflow:visible;enable-background:accumulate" sodipodi:type="arc" />
      <path sodipodi:type="arc" style="color:black;fill:white;fill-opacity:1;fill-rule:evenodd;stroke:none;stroke-width:22;marker:none;visibility:visible;display:inline;overflow:visible;enable-background:accumulate" id="path6923" sodipodi:cx="63.57143" sodipodi:cy="117.42857" sodipodi:rx="7.8571429" sodipodi:ry="7.8571429" d="m 71.428573,117.42857 a 7.8571429,7.8571429 0 1 1 -15.714286,0 7.8571429,7.8571429 0 1 1 15.714286,0 z" transform="matrix(1.5454545,0,0,1.5454545,12.467531,690.88166)" />
      <path transform="matrix(1.5454545,0,0,1.5454545,82.467528,760.16737)" d="m 71.428573,117.42857 a 7.8571429,7.8571429 0 1 1 -15.714286,0 7.8571429,7.8571429 0 1 1 15.714286,0 z" sodipodi:ry="7.8571429" sodipodi:rx="7.8571429" sodipodi:cy="117.42857" sodipodi:cx="63.57143" id="path6925" style="color:black;fill:white;fill-opacity:1;fill-rule:evenodd;stroke:none;stroke-width:22;marker:none;visibility:visible;display:inline;overflow:visible;enable-background:accumulate" sodipodi:type="arc" />
      <path sodipodi:type="arc" style="color:black;fill:white;fill-opacity:1;fill-rule:evenodd;stroke:none;stroke-width:22;marker:none;visibility:visible;display:inline;overflow:visible;enable-background:accumulate" id="path6927" sodipodi:cx="63.57143" sodipodi:cy="117.42857" sodipodi:rx="7.8571429" sodipodi:ry="7.8571429" d="m 71.428573,117.42857 a 7.8571429,7.8571429 0 1 1 -15.714286,0 7.8571429,7.8571429 0 1 1 15.714286,0 z" transform="matrix(1.5454545,0,0,1.5454545,119.61039,714.45308)" />
      <path sodipodi:nodetypes="cccc" inkscape:connector-curvature="0" id="path6931" d="m 36.42857,934.50504 57.857143,47.85714 32.857147,-47.5 78.57142,47.49999" style="fill:none;stroke:#a9f1dd;stroke-width:10;stroke-linecap:butt;stroke-linejoin:miter;stroke-miterlimit:4;stroke-opacity:1;stroke-dasharray:none" />
      <path transform="matrix(1.5454545,0,0,1.5454545,-61.818183,753.02452)" d="m 71.428573,117.42857 a 7.8571429,7.8571429 0 1 1 -15.714286,0 7.8571429,7.8571429 0 1 1 15.714286,0 z" sodipodi:ry="7.8571429" sodipodi:rx="7.8571429" sodipodi:cy="117.42857" sodipodi:cx="63.57143" id="path6933" style="color:black;fill:white;fill-opacity:1;fill-rule:evenodd;stroke:none;stroke-width:22;marker:none;visibility:visible;display:inline;overflow:visible;enable-background:accumulate" sodipodi:type="arc" />
      <path sodipodi:type="arc" style="color:black;fill:white;fill-opacity:1;fill-rule:evenodd;stroke:none;stroke-width:22;marker:none;visibility:visible;display:inline;overflow:visible;enable-background:accumulate" id="path6935" sodipodi:cx="63.57143" sodipodi:cy="117.42857" sodipodi:rx="7.8571429" sodipodi:ry="7.8571429" d="m 71.428573,117.42857 a 7.8571429,7.8571429 0 1 1 -15.714286,0 7.8571429,7.8571429 0 1 1 15.714286,0 z" transform="matrix(1.5454545,0,0,1.5454545,-3.9610398,800.88166)" />
      <path transform="matrix(1.5454545,0,0,1.5454545,28.896101,753.38166)" d="m 71.428573,117.42857 a 7.8571429,7.8571429 0 1 1 -15.714286,0 7.8571429,7.8571429 0 1 1 15.714286,0 z" sodipodi:ry="7.8571429" sodipodi:rx="7.8571429" sodipodi:cy="117.42857" sodipodi:cx="63.57143" id="path6937" style="color:black;fill:white;fill-opacity:1;fill-rule:evenodd;stroke:none;stroke-width:22;marker:none;visibility:visible;display:inline;overflow:visible;enable-background:accumulate" sodipodi:type="arc" />
      <path transform="matrix(1.5454545,0,0,1.5454545,107.46753,800.88165)" d="m 71.428573,117.42857 a 7.8571429,7.8571429 0 1 1 -15.714286,0 7.8571429,7.8571429 0 1 1 15.714286,0 z" sodipodi:ry="7.8571429" sodipodi:rx="7.8571429" sodipodi:cy="117.42857" sodipodi:cx="63.57143" id="path6941" style="color:black;fill:white;fill-opacity:1;fill-rule:evenodd;stroke:none;stroke-width:22;marker:none;visibility:visible;display:inline;overflow:visible;enable-background:accumulate" sodipodi:type="arc" />
   </g>
</svg>
