<?xml version="1.0" encoding="UTF-8" standalone="no"?>
<!-- Created with Inkscape (http://www.inkscape.org/) -->

<svg xmlns:dc="http://purl.org/dc/elements/1.1/" xmlns:cc="http://creativecommons.org/ns#" xmlns:rdf="http://www.w3.org/1999/02/22-rdf-syntax-ns#" xmlns:svg="http://www.w3.org/2000/svg" xmlns="http://www.w3.org/2000/svg" xmlns:sodipodi="http://sodipodi.sourceforge.net/DTD/sodipodi-0.dtd" xmlns:inkscape="http://www.inkscape.org/namespaces/inkscape" width="256" height="256" id="svg10914" version="1.1" inkscape:version="0.48.4 r9939" sodipodi:docname="movies.svg">
   <defs id="defs10916" />
   <sodipodi:namedview id="base" pagecolor="#ffffff" bordercolor="#666666" borderopacity="1.0" inkscape:pageopacity="0.0" inkscape:pageshadow="2" inkscape:zoom="0.70000001" inkscape:cx="225.16563" inkscape:cy="271.84695" inkscape:document-units="px" inkscape:current-layer="layer1" showgrid="false" inkscape:showpageshadow="false" inkscape:snap-page="true" inkscape:snap-bbox="true" inkscape:window-width="1366" inkscape:window-height="741" inkscape:window-x="0" inkscape:window-y="27" inkscape:window-maximized="1" showguides="true" inkscape:guide-bbox="true" inkscape:object-nodes="true" />
   <metadata id="metadata10919">
      <rdf:RDF>
         <cc:Work rdf:about="">
            <dc:format>image/svg+xml</dc:format>
            <dc:type rdf:resource="http://purl.org/dc/dcmitype/StillImage" />
            <dc:title></dc:title>
         </cc:Work>
      </rdf:RDF>
   </metadata>
   <g inkscape:label="Layer 1" inkscape:groupmode="layer" id="layer1" transform="translate(0,-796.36218)">
      <g id="g37917" transform="matrix(1,0,0,-1,663.7412,2540.508)" style="fill:#21201e;fill-opacity:0.99607843">
         <path sodipodi:nodetypes="ssss" inkscape:connector-curvature="0" id="path32622-5" d="m -461.5568,1509.4564 c -118.5216,-82.8069 -267.1812,103.692 -170.6116,201.2419 90.9861,91.9098 260.9183,-26.8704 216.7302,-141.2412 -9.2194,-23.8621 -24.363,-44.8009 -46.1186,-60.0007 z" style="color:black;fill:#21201e;fill-opacity:0.99607843;fill-rule:nonzero;stroke:none;stroke-width:4;marker:none;visibility:visible;display:inline;overflow:visible;enable-background:accumulate" />
      </g>
      <g id="g7266" transform="matrix(3.114776,0,0,3.114776,-1100.7084,-1903.3392)">
         <path sodipodi:nodetypes="csccssssccssccssssssssss" style="color:black;fill:white;fill-opacity:1;fill-rule:nonzero;stroke:none;stroke-width:8;marker:none;visibility:visible;display:inline;overflow:visible;enable-background:accumulate" d="m 406.79072,891.22549 c -5.50918,0 -10,4.4595 -10,9.9687 0,0.01 -3e-5,0.021 0,0.031 l -5.84375,9.5625 c -0.0213,-2e-4 -0.0411,0 -0.0625,0 -3.76736,0 -6.84375,3.0451 -6.84375,6.8125 0,3.7674 3.07639,6.8438 6.84375,6.8438 3.76736,0 6.8125,-3.0764 6.8125,-6.8438 0,-0.15 -0.0217,-0.2899 -0.0312,-0.4375 l 9.03125,-5.9687 c 0.0311,2e-4 0.0626,0 0.0937,0 5.50918,0 9.96875,-4.4909 9.96875,-10 0,-5.5092 -4.45957,-9.9688 -9.96875,-9.9688 z m 0,3.2812 c 3.69603,0 6.6875,2.9915 6.6875,6.6875 0,3.696 -2.99147,6.7188 -6.6875,6.7188 -3.69603,0 -6.71875,-3.0228 -6.71875,-6.7188 0,-3.696 3.02272,-6.6875 6.71875,-6.6875 z m -15.90625,18.5313 c 2.52747,0 4.5625,2.035 4.5625,4.5625 0,2.5274 -2.03503,4.5937 -4.5625,4.5937 -2.52747,0 -4.59375,-2.0663 -4.59375,-4.5937 0,-2.5275 2.06628,-4.5625 4.59375,-4.5625 z" id="path7237" inkscape:connector-curvature="0" />
         <path sodipodi:type="arc" style="color:black;fill:#cdcdcd;fill-opacity:1;fill-rule:nonzero;stroke:none;stroke-width:8;marker:none;visibility:visible;display:inline;overflow:visible;enable-background:accumulate" id="path7233" sodipodi:cx="312.51593" sodipodi:cy="126.5742" sodipodi:rx="5.0507627" sodipodi:ry="5.0507627" d="m 317.56669,126.5742 c 0,2.78946 -2.2613,5.05077 -5.05076,5.05077 -2.78946,0 -5.05076,-2.26131 -5.05076,-5.05077 0,-2.78946 2.2613,-5.05076 5.05076,-5.05076 2.78946,0 5.05076,2.2613 5.05076,5.05076 z" transform="translate(94.259471,774.63169)" />
         <path transform="matrix(0.64720462,0,0,0.64720462,188.60365,835.70271)" d="m 317.56669,126.5742 c 0,2.78946 -2.2613,5.05077 -5.05076,5.05077 -2.78946,0 -5.05076,-2.26131 -5.05076,-5.05077 0,-2.78946 2.2613,-5.05076 5.05076,-5.05076 2.78946,0 5.05076,2.2613 5.05076,5.05076 z" sodipodi:ry="5.0507627" sodipodi:rx="5.0507627" sodipodi:cy="126.5742" sodipodi:cx="312.51593" id="path7244" style="color:black;fill:#cdcdcd;fill-opacity:1;fill-rule:nonzero;stroke:none;stroke-width:8;marker:none;visibility:visible;display:inline;overflow:visible;enable-background:accumulate" sodipodi:type="arc" />
         <path style="color:black;fill:white;fill-opacity:1;fill-rule:nonzero;stroke:none;stroke-width:8;marker:none;visibility:visible;display:inline;overflow:visible;enable-background:accumulate" d="m 372.1951,913.45854 0.50455,-9.16112 18.42876,8.36477 c -5.13494,1.0263 -6.73097,3.6746 -3.78755,8.4035 z" id="rect7246" inkscape:connector-curvature="0" sodipodi:nodetypes="ccccc" />
      </g>
   </g>
</svg>
