<?xml version="1.0" encoding="UTF-8" standalone="no"?>
<!-- Created with Inkscape (http://www.inkscape.org/) -->

<svg xmlns:dc="http://purl.org/dc/elements/1.1/" xmlns:cc="http://creativecommons.org/ns#" xmlns:rdf="http://www.w3.org/1999/02/22-rdf-syntax-ns#" xmlns:svg="http://www.w3.org/2000/svg" xmlns="http://www.w3.org/2000/svg" xmlns:sodipodi="http://sodipodi.sourceforge.net/DTD/sodipodi-0.dtd" xmlns:inkscape="http://www.inkscape.org/namespaces/inkscape" width="256" height="256" id="svg10914" version="1.1" inkscape:version="0.48.4 r9939" sodipodi:docname="web-browser.svg">
   <defs id="defs10916" />
   <sodipodi:namedview id="base" pagecolor="#ffffff" bordercolor="#666666" borderopacity="1.0" inkscape:pageopacity="0.0" inkscape:pageshadow="2" inkscape:zoom="0.98994949" inkscape:cx="134.87424" inkscape:cy="193.26026" inkscape:document-units="px" inkscape:current-layer="g10894" showgrid="false" inkscape:showpageshadow="false" inkscape:snap-page="true" inkscape:snap-bbox="true" inkscape:window-width="1366" inkscape:window-height="741" inkscape:window-x="0" inkscape:window-y="27" inkscape:window-maximized="1" />
   <metadata id="metadata10919">
      <rdf:RDF>
         <cc:Work rdf:about="">
            <dc:format>image/svg+xml</dc:format>
            <dc:type rdf:resource="http://purl.org/dc/dcmitype/StillImage" />
            <dc:title />
         </cc:Work>
      </rdf:RDF>
   </metadata>
   <g inkscape:label="Layer 1" inkscape:groupmode="layer" id="layer1" transform="translate(0,-796.36218)">
      <g transform="translate(10.343959,1.0135877e-5)" id="g10894">
         <path style="color:black;fill:#247a9c;fill-opacity:1;fill-rule:nonzero;stroke:none;stroke-width:4;marker:none;visibility:visible;display:inline;overflow:visible;enable-background:accumulate" d="M 213.30419,834.88155 C 359.72689,1060.2512 -40.193489,1147.4736 -8.3400106,915.6263 4.6513633,821.06787 157.29468,748.67338 213.30419,834.88155 z" id="path10896" inkscape:connector-curvature="0" sodipodi:nodetypes="sss" />
         <g id="g12848" transform="translate(-5.1719825,-6.7660117e-6)">
            <path transform="matrix(0.80289417,0,0,0.80289417,24.210119,821.59173)" d="m 141.13173,127.99999 c 0,10.10886 -8.19485,18.30371 -18.30371,18.30371 -10.10886,0 -18.30371,-8.19485 -18.30371,-18.30371 0,-10.10886 8.19485,-18.3037 18.30371,-18.3037 10.10886,0 18.30371,8.19484 18.30371,18.3037 z" sodipodi:ry="18.303707" sodipodi:rx="18.303707" sodipodi:cy="127.99999" sodipodi:cx="122.82802" id="path10900" style="color:black;fill:#aedbec;fill-opacity:1;fill-rule:nonzero;stroke:none;stroke-width:4;marker:none;visibility:visible;display:inline;overflow:visible;enable-background:accumulate" sodipodi:type="arc" />
            <path inkscape:transform-center-x="-42.219334" transform="matrix(-0.71911509,0,0,0.2458578,100.369,886.79072)" d="m -69.052485,176.93869 -20.889255,-12.06041 -20.88925,-12.06043 20.88925,-12.06041 20.889258,-12.06042 2e-6,24.12084 z" inkscape:randomized="0" inkscape:rounded="0" inkscape:flatsided="false" sodipodi:arg2="2.0943951" sodipodi:arg1="1.0471976" sodipodi:r2="13.926173" sodipodi:r1="27.852339" sodipodi:cy="152.81786" sodipodi:cx="-82.978653" sodipodi:sides="3" id="path10904" style="color:black;fill:#aedbec;fill-opacity:1;stroke:none;stroke-width:8;marker:none;visibility:visible;display:inline;overflow:visible;enable-background:accumulate" sodipodi:type="star" />
            <path inkscape:transform-center-y="42.219448" sodipodi:type="star" style="color:black;fill:#aedbec;fill-opacity:1;stroke:none;stroke-width:8;marker:none;visibility:visible;display:inline;overflow:visible;enable-background:accumulate" id="path10906" sodipodi:sides="3" sodipodi:cx="-82.978653" sodipodi:cy="152.81786" sodipodi:r1="27.852339" sodipodi:r2="13.926173" sodipodi:arg1="1.0471976" sodipodi:arg2="2.0943951" inkscape:flatsided="false" inkscape:rounded="0" inkscape:randomized="0" d="m -69.052485,176.93869 -20.889255,-12.06041 -20.88925,-12.06043 20.88925,-12.06041 20.889258,-12.06042 2e-6,24.12084 z" transform="matrix(0,-0.71911509,-0.2458578,0,160.39948,901.90317)" />
            <path inkscape:transform-center-x="42.219439" transform="matrix(0.71911509,0,0,-0.2458578,145.28704,961.93364)" d="m -69.052485,176.93869 -20.889255,-12.06041 -20.88925,-12.06043 20.88925,-12.06041 20.889258,-12.06042 2e-6,24.12084 z" inkscape:randomized="0" inkscape:rounded="0" inkscape:flatsided="false" sodipodi:arg2="2.0943951" sodipodi:arg1="1.0471976" sodipodi:r2="13.926173" sodipodi:r1="27.852339" sodipodi:cy="152.81786" sodipodi:cx="-82.978653" sodipodi:sides="3" id="path10908" style="color:black;fill:#aedbec;fill-opacity:1;stroke:none;stroke-width:8;marker:none;visibility:visible;display:inline;overflow:visible;enable-background:accumulate" sodipodi:type="star" />
            <path inkscape:transform-center-y="-42.219437" sodipodi:type="star" style="color:black;fill:#aedbec;fill-opacity:1;stroke:none;stroke-width:8;marker:none;visibility:visible;display:inline;overflow:visible;enable-background:accumulate" id="path10910" sodipodi:sides="3" sodipodi:cx="-82.978653" sodipodi:cy="152.81786" sodipodi:r1="27.852339" sodipodi:r2="13.926173" sodipodi:arg1="1.0471976" sodipodi:arg2="2.0943951" inkscape:flatsided="false" inkscape:rounded="0" inkscape:randomized="0" d="m -69.052485,176.93869 -20.889255,-12.06041 -20.88925,-12.06043 20.88925,-12.06041 20.889258,-12.06042 2e-6,24.12084 z" transform="matrix(0,0.71911509,0.2458578,0,85.256558,946.8212)" />
            <path sodipodi:type="arc" style="color:black;fill:none;stroke:white;stroke-width:6.53755188;stroke-opacity:1;marker:none;visibility:visible;display:inline;overflow:visible;enable-background:accumulate" id="path10902" sodipodi:cx="122.82802" sodipodi:cy="127.99999" sodipodi:rx="18.303707" sodipodi:ry="18.303707" d="m 141.13173,127.99999 c 0,10.10886 -8.19485,18.30371 -18.30371,18.30371 -10.10886,0 -18.30371,-8.19485 -18.30371,-18.30371 0,-10.10886 8.19485,-18.3037 18.30371,-18.3037 10.10886,0 18.30371,8.19484 18.30371,18.3037 z" transform="matrix(1.5296246,0,0,1.5296246,-65.052729,728.57024)" />
            <path transform="matrix(4.111711,0,0,4.111711,-382.20529,398.0632)" d="m 141.13173,127.99999 c 0,10.10886 -8.19485,18.30371 -18.30371,18.30371 -10.10886,0 -18.30371,-8.19485 -18.30371,-18.30371 0,-10.10886 8.19485,-18.3037 18.30371,-18.3037 10.10886,0 18.30371,8.19484 18.30371,18.3037 z" sodipodi:ry="18.303707" sodipodi:rx="18.303707" sodipodi:cy="127.99999" sodipodi:cx="122.82802" id="path10912" style="color:black;fill:none;stroke:white;stroke-width:2.43207765;stroke-opacity:1;marker:none;visibility:visible;display:inline;overflow:visible;enable-background:accumulate" sodipodi:type="arc" />
         </g>
      </g>
   </g>
</svg>
